<?xml version="1.0" standalone="no"?>
<!DOCTYPE svg PUBLIC "-//W3C//DTD SVG 20010904//EN"
 "http://www.w3.org/TR/2001/REC-SVG-20010904/DTD/svg10.dtd">
<svg version="1.0" xmlns="http://www.w3.org/2000/svg"
 width="1897.000000pt" height="766.000000pt" viewBox="0 0 1897.000000 766.000000"
 preserveAspectRatio="xMidYMid meet">
<metadata>
Created by potrace 1.16, written by Peter Selinger 2001-2019
</metadata>
<g transform="translate(0.000000,766.000000) scale(0.100000,-0.100000)"
fill="#000000" stroke="none">
<path d="M0 7190 l0 -440 9485 0 9485 0 0 440 0 440 -9485 0 -9485 0 0 -440z
m526 170 c19 -8 30 -8 38 0 20 20 26 9 26 -45 0 -30 -4 -55 -10 -55 -5 0 -10
4 -10 9 0 5 -11 23 -25 39 -48 58 -120 50 -159 -17 -25 -43 -26 -142 -2 -193
31 -65 104 -74 167 -20 27 22 31 23 28 7 -2 -11 -20 -30 -39 -43 -30 -20 -44
-23 -102 -20 -75 4 -107 21 -146 78 -26 39 -30 125 -8 168 18 35 64 78 96 91
33 13 112 14 146 1z m444 -147 c0 -122 3 -149 17 -165 15 -17 13 -18 -51 -18
l-67 0 15 22 c12 17 16 50 16 143 0 93 -4 126 -16 143 -15 22 -15 22 35 22
l51 0 0 -147z m140 0 c0 -122 3 -149 17 -165 15 -17 13 -18 -51 -18 l-67 0 15
22 c12 17 16 50 16 143 0 93 -4 126 -16 143 -15 22 -15 22 35 22 l51 0 0 -147z
m820 97 c0 -57 -10 -64 -27 -20 -12 32 -46 50 -94 50 l-29 0 0 -65 c0 -37 4
-65 10 -65 17 0 50 39 50 60 0 11 5 20 10 20 6 0 10 -37 10 -90 0 -53 -4 -90
-10 -90 -5 0 -10 9 -10 20 0 21 -33 60 -50 60 -7 0 -10 -25 -8 -67 l3 -68 47
1 c51 0 82 20 101 64 l11 25 4 -24 c2 -13 1 -39 -3 -57 l-6 -34 -147 1 c-98 0
-140 3 -124 9 21 9 22 13 22 155 0 142 -1 146 -22 155 -16 6 24 9 120 9 l142
1 0 -50z m290 -99 c0 -97 4 -152 11 -157 17 -10 -2 -21 -48 -29 -27 -4 -43 -3
-43 3 0 7 -10 7 -28 0 -87 -33 -151 72 -108 177 8 18 23 38 34 44 27 15 75 14
90 -1 9 -9 12 0 12 40 0 45 -3 54 -22 62 -18 7 -8 9 40 9 l62 1 0 -149z m9708
72 c-13 -3 -18 -15 -18 -44 l0 -39 45 0 c45 0 45 0 45 35 0 22 -6 38 -17 44
-14 8 -6 10 32 10 28 -1 42 -3 33 -6 -16 -4 -18 -17 -18 -93 0 -76 2 -89 18
-93 9 -3 -5 -5 -33 -6 -38 0 -46 2 -32 10 11 7 17 22 17 49 l0 40 -45 0 -45 0
0 -44 c0 -34 4 -46 18 -49 9 -3 -5 -5 -33 -6 -38 0 -46 2 -32 10 14 8 17 24
17 89 0 65 -3 81 -17 89 -14 8 -6 10 32 10 28 -1 42 -3 33 -6z m3600 -9 c43
-30 16 -94 -40 -94 -26 0 -28 -3 -28 -39 0 -29 5 -41 18 -44 9 -3 -5 -5 -33
-6 -38 0 -46 2 -32 10 14 8 17 24 17 89 0 65 -3 81 -17 89 -14 8 -5 10 37 11
35 0 64 -6 78 -16z m1501 2 c28 -15 51 -53 51 -87 0 -29 -27 -77 -50 -89 -25
-13 -16 -34 23 -55 l32 -16 -30 6 c-16 3 -58 25 -92 47 -48 30 -65 48 -72 73
-13 47 -3 82 31 110 33 28 66 32 107 11z m-16228 -35 c21 -17 24 -29 28 -105
2 -50 7 -86 13 -86 6 0 5 -6 -2 -15 -16 -19 -64 -19 -80 0 -10 12 -15 12 -35
-1 -29 -19 -74 -15 -88 7 -20 32 1 68 58 100 58 33 72 63 40 89 -20 17 -30 6
-30 -33 0 -26 -5 -33 -23 -35 -24 -4 -52 13 -52 30 0 5 13 23 29 39 24 23 38
29 74 29 29 0 53 -7 68 -19z m659 -1 c17 -17 20 -33 20 -104 0 -58 4 -86 13
-89 9 -4 8 -8 -3 -16 -22 -16 -70 -13 -76 3 -5 13 -10 13 -39 -1 -64 -30 -115
10 -80 63 9 14 36 34 60 46 40 20 45 26 45 55 0 36 -23 54 -42 35 -8 -8 -8
-15 2 -27 17 -20 -3 -45 -36 -45 -28 0 -38 14 -30 45 13 52 126 75 166 35z
m969 14 c41 -5 61 -11 61 -20 0 -8 -6 -14 -14 -14 -11 0 -13 -10 -9 -38 6 -48
-19 -72 -84 -80 -46 -5 -67 -17 -57 -34 3 -4 31 -8 62 -8 73 0 102 -19 102
-64 0 -48 -29 -69 -100 -74 -96 -7 -157 32 -111 69 18 15 19 18 6 29 -22 18
-18 47 8 67 l23 17 -24 21 c-35 31 -34 80 2 112 29 25 41 26 135 17z m255 -25
c14 -17 26 -41 26 -55 0 -23 -3 -24 -60 -24 -48 0 -60 -3 -60 -15 0 -25 27
-72 45 -79 18 -7 55 9 55 24 0 6 5 10 10 10 19 0 10 -29 -16 -49 -41 -32 -98
-28 -135 8 -25 25 -29 37 -29 83 0 80 37 127 102 128 28 0 42 -7 62 -31z
m13551 -9 c17 -4 23 -8 14 -9 -11 -1 -15 -8 -12 -24 6 -29 -20 -57 -53 -57
-13 0 -24 -4 -24 -10 0 -5 17 -10 39 -10 63 0 79 -44 25 -69 -31 -14 -59 -14
-84 -1 -16 8 -16 14 -6 45 7 19 15 37 19 41 3 3 -1 17 -10 30 -14 22 -14 26 1
49 17 26 36 29 91 15z"/>
<path d="M16940 7260 c-15 -15 -20 -33 -20 -70 0 -37 5 -55 20 -70 57 -57 124
13 99 103 -15 56 -62 74 -99 37z"/>
<path d="M4508 5220 c-84 -25 -132 -104 -132 -215 0 -59 4 -78 27 -117 39 -67
86 -93 167 -93 75 0 113 18 149 71 29 41 24 57 -23 71 -30 9 -36 9 -36 -4 0
-28 -56 -73 -92 -73 -67 0 -108 57 -108 150 0 90 41 150 103 150 38 0 84 -25
92 -50 5 -15 12 -19 26 -15 70 19 68 15 39 63 -35 58 -132 86 -212 62z"/>
<path d="M874 5005 l50 -215 47 0 46 0 38 148 c21 81 41 151 45 155 6 7 33
-80 80 -260 11 -42 11 -43 55 -43 33 0 45 4 49 18 10 33 96 395 96 403 0 5
-18 9 -39 9 -46 0 -40 13 -77 -163 -15 -70 -30 -124 -34 -120 -4 4 -23 70 -41
146 l-33 137 -51 0 -51 0 -32 -125 c-48 -185 -46 -182 -66 -90 -10 44 -24 110
-33 148 l-15 67 -42 0 -43 0 51 -215z"/>
<path d="M1750 5005 l0 -215 45 0 45 0 0 215 0 215 -45 0 -45 0 0 -215z"/>
<path d="M5150 5005 l0 -215 45 0 45 0 0 215 0 215 -45 0 -45 0 0 -215z"/>
<path d="M5320 5005 l0 -215 40 0 40 0 0 215 0 215 -40 0 -40 0 0 -215z"/>
<path d="M6150 5005 l0 -215 165 0 165 0 0 35 0 35 -120 0 -120 0 0 60 0 60
105 0 105 0 0 35 0 35 -105 0 -105 0 0 50 0 50 115 0 115 0 0 35 0 35 -160 0
-160 0 0 -215z"/>
<path d="M6760 5144 l0 -76 -34 21 c-18 12 -46 21 -62 21 -42 0 -93 -35 -110
-75 -19 -46 -18 -139 2 -181 35 -72 126 -94 180 -43 l24 22 0 -21 c0 -19 6
-22 40 -22 l40 0 0 215 0 215 -40 0 -40 0 0 -76z m-33 -109 c24 -17 40 -87 29
-130 -9 -35 -41 -65 -70 -65 -40 0 -66 43 -66 108 0 86 50 127 107 87z"/>
<path d="M7630 5188 c0 -18 5 -90 12 -160 11 -121 13 -128 33 -128 26 0 32 29
42 208 l6 112 -46 0 c-46 0 -47 0 -47 -32z"/>
<path d="M3693 5179 c-25 -16 -33 -28 -33 -50 0 -22 -5 -29 -20 -29 -16 0 -20
-7 -20 -30 0 -23 4 -30 20 -30 19 0 20 -7 20 -105 0 -99 2 -107 25 -130 39
-40 115 -32 115 10 0 18 -6 24 -27 27 l-28 3 -3 98 -3 97 31 0 c27 0 30 3 30
30 0 27 -3 30 -30 30 -29 0 -30 1 -30 50 0 28 -3 50 -7 50 -5 0 -23 -10 -40
-21z"/>
<path d="M1472 5091 c-50 -32 -72 -76 -72 -146 0 -73 23 -121 71 -147 62 -33
151 -16 185 36 19 31 19 32 -22 40 -23 5 -34 2 -49 -14 -10 -11 -29 -20 -42
-20 -28 0 -63 33 -63 60 0 19 7 20 100 20 l100 0 0 38 c0 46 -26 99 -61 125
-40 29 -107 33 -147 8z"/>
<path d="M1980 5092 c-43 -21 -80 -89 -80 -147 0 -58 37 -126 80 -147 70 -35
157 -13 193 50 11 18 18 34 16 36 -2 2 -21 6 -41 10 -29 5 -38 4 -38 -7 0 -21
-34 -47 -62 -47 -43 0 -63 33 -63 105 0 48 5 68 19 84 26 29 70 27 94 -4 17
-22 25 -24 56 -18 l36 8 -20 33 c-36 58 -122 79 -190 44z"/>
<path d="M2320 5088 c-54 -28 -80 -74 -80 -143 0 -70 25 -115 80 -142 54 -28
92 -29 146 -4 117 53 117 239 0 292 -54 25 -93 24 -146 -3z m125 -63 c21 -20
25 -34 25 -80 0 -46 -4 -60 -25 -80 -13 -14 -36 -25 -50 -25 -14 0 -37 11 -50
25 -21 20 -25 34 -25 80 0 46 4 60 25 80 13 14 36 25 50 25 14 0 37 -11 50
-25z"/>
<path d="M2750 5103 c-8 -3 -25 -15 -37 -26 l-23 -20 0 21 c0 19 -6 22 -40 22
l-40 0 0 -155 0 -155 39 0 39 0 4 109 c4 118 17 151 63 151 39 0 45 -18 45
-142 l0 -118 39 0 39 0 4 109 c3 118 17 151 63 151 39 0 45 -18 45 -142 l0
-118 41 0 41 0 -4 135 c-3 121 -5 137 -24 156 -33 33 -92 36 -135 6 l-35 -24
-28 23 c-26 23 -63 29 -96 17z"/>
<path d="M3213 5096 c-89 -40 -111 -200 -39 -272 57 -57 151 -58 206 -3 16 17
30 34 30 38 0 5 -17 11 -37 14 -29 5 -39 2 -50 -13 -21 -29 -67 -26 -92 6 -39
49 -31 54 85 54 l106 0 -7 47 c-9 60 -28 98 -60 119 -35 23 -103 27 -142 10z"/>
<path d="M3920 5088 c-54 -28 -80 -74 -80 -143 0 -70 25 -115 80 -142 54 -28
92 -29 146 -4 56 26 87 77 87 146 0 69 -31 120 -87 146 -54 25 -93 24 -146 -3z
m125 -63 c21 -20 25 -34 25 -80 0 -46 -4 -60 -25 -80 -13 -14 -36 -25 -50 -25
-14 0 -37 11 -50 25 -21 20 -25 34 -25 80 0 46 4 60 25 80 13 14 36 25 50 25
14 0 37 -11 50 -25z"/>
<path d="M4883 5103 c-21 -4 -73 -56 -73 -73 0 -4 14 -10 32 -14 24 -5 34 -2
45 14 25 36 109 23 101 -16 -2 -13 -22 -22 -73 -35 -82 -21 -115 -51 -115
-104 0 -76 83 -116 159 -77 33 17 40 18 45 6 3 -8 19 -14 38 -14 l33 0 -4 122
c-2 68 -7 133 -12 146 -15 40 -95 61 -176 45z"/>
<path d="M5703 5096 c-17 -8 -39 -28 -47 -44 l-15 -30 32 -5 c23 -3 38 1 53
14 28 26 80 25 94 -1 15 -28 7 -37 -43 -45 -69 -12 -117 -35 -132 -66 -18 -34
-19 -50 -3 -84 24 -54 98 -70 156 -35 39 24 42 24 42 5 0 -11 11 -15 41 -15
35 0 40 2 34 18 -5 9 -9 68 -10 131 -2 107 -4 115 -28 139 -21 20 -38 26 -84
29 -36 2 -70 -2 -90 -11z"/>
<path d="M6973 5091 c-84 -53 -91 -205 -13 -276 30 -27 109 -28 139 -1 l21 19
0 -46 c0 -36 -5 -49 -19 -57 -28 -14 -79 -12 -88 4 -4 7 -30 16 -56 20 -48 7
-49 7 -42 -16 11 -35 34 -57 74 -68 84 -23 173 -1 198 50 9 17 13 81 13 203
l0 177 -35 0 c-24 0 -35 -5 -35 -15 0 -19 -9 -19 -31 1 -28 26 -89 28 -126 5z
m127 -61 c30 -30 29 -131 -2 -160 -28 -25 -62 -26 -88 0 -16 16 -20 33 -20 80
0 68 21 100 65 100 14 0 34 -9 45 -20z"/>
<path d="M7340 5092 c-91 -50 -101 -231 -15 -288 57 -37 156 -26 195 23 27 35
26 39 -17 46 -29 5 -39 2 -50 -13 -29 -41 -103 -13 -103 38 0 21 4 22 101 22
l102 0 -6 52 c-8 61 -30 96 -78 120 -44 23 -86 23 -129 0z"/>
<path d="M13260 4921 c-97 -32 -192 -113 -210 -180 -6 -23 -9 -45 -6 -48 2 -3
8 11 11 31 9 46 21 46 30 0 4 -24 21 -50 49 -77 44 -43 49 -67 14 -67 -21 0
-75 51 -89 85 -6 17 -8 17 -8 3 -1 -10 19 -39 44 -65 l46 -47 -25 -46 c-57
-107 -67 -164 -67 -419 0 -130 -1 -262 -2 -293 -2 -66 18 -94 93 -133 86 -43
149 -56 305 -62 141 -5 152 -4 175 15 22 18 25 28 25 84 -1 53 -7 74 -39 136
-25 46 -59 91 -93 122 -51 46 -58 50 -106 50 -71 0 -147 37 -181 86 -72 107
14 224 141 192 74 -18 245 -5 338 27 178 61 349 172 401 260 29 50 27 49 108
34 133 -24 220 -89 250 -186 6 -19 4 -23 -14 -23 -29 0 -60 -18 -60 -35 0 -11
12 -14 52 -12 l52 2 18 -59 c27 -89 33 -207 14 -295 -22 -103 -51 -157 -121
-225 -95 -93 -96 -94 -136 -89 -41 5 -62 -13 -57 -49 3 -21 7 -23 53 -20 64 4
241 55 321 93 65 31 120 78 135 117 15 40 10 113 -15 207 -14 50 -32 154 -40
231 -22 204 -51 272 -161 384 -176 180 -536 269 -867 214 -97 -16 -99 -16
-121 3 -41 38 -90 56 -162 59 -38 2 -81 0 -95 -5z"/>
<path d="M13170 3188 c0 -7 17 -24 37 -38 104 -71 351 -332 442 -468 50 -75
56 -82 68 -66 15 20 18 48 4 40 -5 -3 -45 44 -90 104 -92 123 -270 306 -377
387 -75 56 -84 61 -84 41z"/>
<path d="M14733 3153 c3 -16 19 -93 37 -173 27 -122 32 -173 37 -325 3 -99 0
-256 -6 -349 -6 -93 -9 -171 -6 -174 17 -18 27 41 42 267 16 239 16 262 -1
395 -16 134 -37 232 -72 339 -17 51 -40 65 -31 20z"/>
<path d="M2920 3137 c-47 -24 -50 -45 -48 -289 3 -222 4 -228 26 -250 l23 -23
584 0 584 0 23 23 c23 22 23 26 23 262 0 236 0 240 -23 262 l-23 23 -572 2
c-446 2 -577 0 -597 -10z m403 -245 c22 -19 22 -70 0 -94 -36 -40 -123 -10
-123 43 0 67 71 97 123 51z"/>
<path d="M4530 3137 c-47 -24 -50 -45 -48 -289 3 -222 4 -228 26 -250 l23 -23
1099 0 1099 0 23 23 c23 22 23 26 23 262 0 236 0 240 -23 262 l-23 23 -1087 2
c-859 2 -1092 0 -1112 -10z m720 -260 l0 -93 -52 -2 c-62 -3 -88 16 -88 63 0
48 52 85 91 65 17 -10 19 -7 19 25 0 24 4 35 15 35 12 0 15 -17 15 -93z m-437
72 c28 -15 37 -28 37 -56 0 -30 -45 -63 -86 -63 -30 0 -34 -3 -34 -25 0 -16
-6 -25 -15 -25 -12 0 -15 17 -15 90 l0 90 46 0 c25 0 55 -5 67 -11z m1140 -61
c39 -46 9 -108 -53 -108 -29 0 -43 6 -54 22 -54 76 46 156 107 86z m412 23
c11 -5 25 -4 33 1 9 8 12 -8 12 -75 0 -75 -3 -88 -19 -97 -29 -15 -87 -12
-101 5 -12 14 -8 15 28 9 43 -7 72 6 72 31 0 10 -6 11 -29 2 -78 -29 -125 92
-48 123 27 11 27 11 52 1z"/>
</g>
</svg>
