<?xml version="1.0" standalone="no"?>
<!DOCTYPE svg PUBLIC "-//W3C//DTD SVG 20010904//EN"
 "http://www.w3.org/TR/2001/REC-SVG-20010904/DTD/svg10.dtd">
<svg version="1.0" xmlns="http://www.w3.org/2000/svg"
 width="1897.000000pt" height="871.000000pt" viewBox="0 0 1897.000000 871.000000"
 preserveAspectRatio="xMidYMid meet">
<metadata>
Created by potrace 1.16, written by Peter Selinger 2001-2019
</metadata>
<g transform="translate(0.000000,871.000000) scale(0.100000,-0.100000)"
fill="#000000" stroke="none">
<path d="M0 7950 l0 -750 478 -1 c262 -1 490 0 505 1 19 1 28 -3 26 -12 -3
-24 1 -38 11 -38 6 0 10 11 10 25 l0 25 140 0 c113 0 140 -3 140 -14 0 -8 6
-16 14 -19 10 -4 14 0 11 12 -2 12 4 17 26 19 18 1 28 -2 27 -9 -2 -6 3 -14
11 -17 8 -2 11 0 7 6 -3 5 6 13 21 17 17 4 29 2 34 -7 7 -10 9 -10 9 0 0 9
701 12 3469 12 l3470 0 15 -22 c21 -30 11 -36 -14 -8 -26 30 -26 16 1 -21 25
-35 18 -73 -12 -64 -24 8 -25 -3 -1 -21 11 -9 12 -13 4 -14 -10 0 -10 -4 0
-22 l12 -23 7 25 c5 19 7 14 7 -20 0 -25 -2 -38 -5 -28 -2 9 -10 18 -17 21 -9
4 -11 -4 -8 -25 4 -29 3 -29 -18 -18 -22 12 -23 11 -16 -21 3 -18 11 -36 17
-39 6 -4 11 -23 12 -42 2 -29 5 -34 21 -30 13 3 17 1 12 -6 -5 -8 -2 -10 8 -6
22 8 20 -13 -1 -25 -15 -8 -16 -14 -6 -40 6 -18 7 -33 2 -37 -5 -3 -9 -13 -8
-22 0 -14 2 -13 9 3 7 19 8 19 15 2 4 -10 3 -29 -3 -43 -14 -30 -6 -54 19 -54
14 0 19 -7 19 -25 0 -32 13 -32 30 0 12 22 14 23 25 8 8 -11 14 -13 19 -5 4 7
3 12 -3 12 -5 0 -8 7 -7 15 3 19 16 32 16 16 0 -7 7 -11 15 -8 8 4 17 1 21 -5
5 -7 2 -8 -6 -3 -10 6 -12 4 -7 -9 4 -10 7 -20 7 -22 0 -10 25 -2 43 14 19 16
20 16 14 0 -4 -12 -1 -18 9 -18 8 0 25 -5 37 -12 21 -11 21 -11 2 -19 -11 -4
-28 -8 -39 -8 -15 -1 -16 2 -7 13 10 12 8 13 -8 9 -12 -3 -21 -9 -21 -14 0 -5
-4 -9 -10 -9 -5 0 -7 7 -3 15 4 13 -2 15 -36 13 -25 -2 -41 -8 -41 -15 0 -16
12 -17 28 -1 9 9 17 5 37 -16 14 -15 25 -28 25 -30 0 -1 -16 0 -36 2 -49 6
-37 -15 14 -24 20 -4 40 -12 44 -18 13 -20 9 -56 -7 -56 -8 0 -15 -4 -15 -10
0 -5 8 -10 18 -10 10 0 24 -6 30 -12 10 -10 14 -8 18 10 7 26 17 28 38 7 13
-14 17 -12 38 16 13 17 23 34 23 39 0 15 15 24 16 9 0 -8 4 -6 9 6 8 19 9 19
9 -2 1 -25 21 -32 21 -8 0 8 5 15 10 15 6 0 10 -10 10 -22 0 -37 14 -50 44
-42 14 3 29 10 32 15 13 22 64 -3 64 -31 0 -8 -8 -7 -25 4 -30 20 -35 20 -35
0 0 -9 5 -14 12 -12 7 3 22 -7 34 -21 l22 -25 25 24 c14 14 32 25 39 25 7 0
14 11 16 23 3 18 9 23 22 19 11 -3 21 0 23 7 3 8 8 8 18 -1 9 -10 10 -13 1
-13 -7 0 -12 -10 -12 -22 -1 -22 -1 -22 -15 -4 -18 24 -28 15 -28 -24 0 -21
-6 -30 -21 -33 -20 -4 -20 -4 2 -6 12 0 22 -8 22 -16 0 -8 5 -15 10 -15 6 0
10 7 10 16 0 10 7 14 23 12 18 -2 22 1 20 20 -2 16 2 22 17 22 21 0 27 -15 10
-25 -16 -10 0 -27 21 -22 20 5 37 -11 23 -22 -11 -7 -15 -41 -8 -61 5 -13 7
-12 15 3 10 17 39 24 39 10 0 -11 106 -10 117 0 4 5 0 13 -10 18 -21 13 -22
29 -1 29 14 0 14 3 4 15 -7 9 -8 15 -2 15 5 0 13 -8 17 -17 6 -17 7 -17 16 0
11 19 29 14 29 -8 0 -7 -7 -21 -16 -30 -14 -13 -14 -19 -4 -28 8 -8 11 -8 7
-1 -8 14 50 64 73 64 9 0 21 -5 28 -12 9 -9 12 -8 12 7 0 16 2 17 9 6 12 -19
43 -6 39 16 -2 10 3 23 12 30 12 9 13 14 2 24 -17 18 -15 29 6 29 10 0 24 -9
32 -20 8 -11 20 -20 27 -20 21 0 15 31 -6 37 -29 7 -33 31 -9 44 17 9 24 8 34
-5 7 -10 15 -13 18 -8 3 5 20 12 37 16 21 4 29 10 26 20 -3 8 1 22 8 33 10 12
14 14 15 4 0 -7 6 -11 15 -8 8 4 17 2 20 -2 3 -5 -2 -11 -9 -14 -8 -3 -14 -15
-13 -26 0 -11 5 -17 9 -15 4 3 13 2 19 -2 8 -4 7 -9 -2 -15 -12 -7 -12 -9 0
-9 8 0 23 7 33 17 17 15 19 15 37 -1 12 -11 21 -14 26 -7 3 6 16 11 29 11 13
0 31 9 41 20 17 19 19 19 31 2 7 -9 14 -12 14 -5 0 6 -6 18 -13 25 -8 7 -12
19 -9 26 2 8 -2 10 -13 6 -12 -5 -16 -2 -13 11 2 10 -3 20 -9 22 -7 3 -13 -3
-13 -13 0 -13 -3 -15 -11 -7 -17 17 -14 62 5 81 16 16 16 15 6 -13 -9 -24 -9
-28 1 -17 15 14 69 16 69 2 0 -10 -13 -14 -40 -11 -12 1 -11 -1 2 -9 12 -8 25
-5 51 10 31 18 35 19 41 5 4 -13 10 -14 26 -5 13 7 20 7 20 0 0 -19 37 -10 48
13 18 37 19 51 5 66 -8 7 -11 16 -8 20 4 3 11 -2 16 -12 11 -18 49 -24 49 -6
0 5 5 7 10 4 6 -3 10 -21 10 -39 0 -19 6 -38 13 -44 15 -13 63 -4 78 14 10 12
9 13 -5 8 -10 -4 -16 -1 -16 7 -1 9 -4 8 -11 -3 -5 -10 -17 -18 -24 -18 -17 0
-20 35 -5 45 6 3 10 13 10 21 0 8 -4 13 -9 10 -5 -4 -12 7 -16 23 -4 20 -11
28 -20 24 -8 -2 -13 -10 -12 -15 1 -6 -3 -12 -9 -15 -6 -2 -11 4 -11 13 0 9 9
19 19 22 10 2 18 9 18 14 0 5 5 6 10 3 6 -3 10 -15 10 -26 0 -19 1 -19 16 -5
22 22 24 21 21 -20 -1 -21 3 -39 10 -41 7 -3 9 3 6 17 -4 15 1 26 15 36 12 8
19 21 16 29 -11 29 14 15 28 -15 8 -20 20 -30 35 -30 17 0 21 -5 18 -25 -1
-17 4 -29 16 -35 28 -15 39 -12 40 13 0 12 3 16 6 10 5 -14 43 -18 43 -5 0 4
15 17 33 29 32 21 83 28 93 12 7 -12 54 -11 54 1 0 5 -6 7 -12 5 -24 -9 -50
76 -28 90 6 3 10 -5 10 -18 0 -22 16 -37 41 -37 5 0 9 8 9 19 0 11 9 21 22 24
18 5 19 8 8 21 -23 28 11 19 42 -11 25 -24 28 -25 27 -8 -4 42 1 76 11 70 6
-4 17 9 25 27 8 19 14 25 15 16 0 -11 8 -18 19 -18 14 0 20 9 23 35 2 19 0 35
-4 35 -4 0 -8 5 -8 11 0 5 4 8 9 5 14 -9 19 15 13 67 -3 30 -1 47 6 47 6 0 23
5 39 11 26 10 27 12 8 19 -19 8 -19 9 3 9 20 1 21 4 12 21 -6 11 -8 20 -4 20
4 0 -5 11 -20 25 -15 14 -31 25 -37 25 -5 0 -9 7 -9 16 0 11 8 15 28 12 15 -1
30 -7 35 -13 4 -6 11 -4 18 5 8 12 9 10 4 -9 -7 -23 -6 -23 15 -8 32 22 59 7
52 -29 -4 -23 -2 -26 13 -21 13 6 16 3 11 -9 -3 -8 -6 -18 -6 -20 0 -2 -7 -4
-16 -4 -8 0 -12 5 -9 10 3 6 1 10 -4 10 -13 0 -14 -10 -1 -30 7 -12 16 -13 52
-3 36 10 40 9 25 -2 -16 -12 -16 -13 3 -18 15 -4 20 0 21 16 4 61 -2 109 -16
120 -5 4 47 7 118 6 107 -1 129 -4 137 -18 8 -14 9 -14 10 -1 0 13 18 16 107
18 75 1 110 -2 115 -11 6 -9 8 -9 8 0 0 8 37 11 130 10 101 0 130 -3 130 -14
0 -7 5 -13 10 -13 6 0 10 7 10 16 0 13 16 15 108 14 59 -1 1634 -1 3500 -1
l3392 1 0 750 0 750 -9485 0 -9485 0 0 -750z m767 519 c8 -8 16 -7 31 2 18 11
24 10 41 -5 13 -12 38 -19 67 -20 53 -3 69 -22 50 -63 -11 -24 -26 -31 -26
-12 0 5 -8 9 -18 7 -25 -4 -52 20 -46 40 3 9 -2 6 -10 -8 -15 -25 -15 -25 -16
-3 0 22 -1 22 -20 6 -10 -9 -39 -18 -64 -20 -41 -4 -45 -2 -54 24 l-10 28 -1
-27 c-1 -16 -4 -28 -8 -29 -5 0 -17 -2 -28 -4 -14 -3 -24 4 -33 23 -8 17 -9
28 -2 30 5 2 10 10 10 18 0 16 31 19 46 5 11 -11 64 -3 64 10 0 12 14 11 27
-2z m8286 -51 c14 -18 34 -52 46 -75 l21 -43 185 0 c102 0 185 3 185 8 0 11
-30 55 -48 70 -9 6 -28 12 -44 12 -18 0 -28 5 -28 15 0 11 11 15 39 15 43 0
74 -25 106 -85 17 -30 25 -35 56 -35 l36 0 -1 46 c-1 59 26 84 91 84 54 0 92
-18 165 -81 l56 -49 156 0 c86 0 156 2 156 4 0 1 -5 17 -11 34 -8 23 -7 37 2
54 17 32 28 38 72 38 47 0 81 -31 97 -89 8 -30 16 -41 30 -41 11 0 20 -7 20
-15 0 -8 -9 -15 -20 -15 -19 0 -20 -7 -20 -140 0 -133 -1 -140 -20 -140 -19 0
-20 7 -20 140 l0 140 -100 0 -100 0 0 -37 c0 -29 3 -34 12 -25 7 7 27 12 45
12 46 0 73 -30 73 -81 0 -34 -6 -47 -36 -77 -34 -34 -37 -35 -50 -18 -12 17
-10 22 16 46 33 31 39 70 15 90 -13 11 -21 10 -43 -7 -25 -19 -27 -26 -30
-102 -3 -73 -5 -81 -22 -81 -16 0 -20 7 -20 34 0 34 0 34 -39 29 -49 -7 -79
10 -97 52 -32 78 42 145 117 105 17 -10 19 -7 19 25 l0 35 -100 0 -100 0 0
-140 c0 -133 -1 -140 -20 -140 -19 0 -20 7 -20 140 l0 140 -45 0 -45 0 0 -95
c0 -106 -10 -118 -55 -69 -31 33 -33 64 -5 64 17 0 20 7 20 50 l0 50 -45 0
-45 0 0 -140 0 -140 -25 0 -25 0 0 140 0 140 -35 0 -35 0 0 -140 c0 -133 -1
-140 -20 -140 -19 0 -20 7 -20 140 l0 140 -30 0 -30 0 0 -150 0 -150 -25 0
c-20 0 -25 5 -25 26 0 21 -3 25 -17 18 -10 -4 -39 -9 -65 -12 -61 -5 -93 23
-85 73 4 24 1 35 -9 39 -8 3 -19 17 -26 30 -9 20 -8 30 6 51 14 21 24 25 61
25 41 0 45 2 45 25 0 25 -1 25 -85 25 l-85 0 0 -140 0 -140 -25 0 -25 0 0 140
0 140 -30 0 -30 0 0 -140 c0 -133 -1 -140 -20 -140 -17 0 -20 7 -20 41 l0 40
-59 -45 c-64 -50 -76 -54 -85 -31 -3 9 6 23 24 36 l29 22 -30 27 c-27 27 -29
32 -29 109 0 80 0 81 -25 81 -16 0 -25 6 -25 15 0 13 23 15 146 15 132 0 145
2 133 16 -20 24 -65 44 -99 44 -20 0 -30 5 -30 15 0 21 83 21 100 0 7 -9 15
-13 18 -10 12 12 -43 55 -70 55 -18 0 -28 5 -28 15 0 11 11 15 39 15 33 0 44
-5 64 -32z m-1793 -16 c16 -16 32 -45 35 -65 l7 -37 154 0 c130 0 154 -2 154
-15 0 -8 -9 -15 -20 -15 -19 0 -20 -7 -20 -140 0 -133 -1 -140 -20 -140 -17 0
-20 7 -20 45 0 42 -2 45 -19 35 -27 -14 -92 -12 -113 4 -16 12 -54 86 -46 90
44 20 54 39 44 82 -6 21 -12 24 -51 24 l-45 0 0 -140 c0 -133 -1 -140 -20
-140 -19 0 -20 7 -20 140 l0 140 -35 0 -35 0 0 -140 c0 -133 -1 -140 -20 -140
-19 0 -20 7 -20 90 l0 90 -41 0 c-54 0 -79 -15 -79 -46 0 -31 15 -61 47 -95
21 -23 22 -27 8 -39 -33 -27 -95 64 -95 138 0 54 25 72 102 72 l58 0 0 35 0
35 -125 0 -125 0 10 -26 c19 -48 12 -84 -22 -116 l-31 -29 47 -48 c42 -42 45
-49 31 -61 -14 -11 -21 -8 -52 21 -19 19 -53 61 -75 93 -33 52 -36 61 -23 69
11 6 23 3 36 -9 29 -26 54 -7 53 40 -2 55 -17 66 -90 66 l-64 0 0 -140 c0
-133 -1 -140 -20 -140 -19 0 -20 7 -20 140 l0 140 -30 0 -30 0 0 -140 0 -140
-25 0 c-24 0 -25 3 -25 60 l0 60 -50 0 c-47 0 -50 -2 -50 -25 0 -32 -25 -33
-57 -3 -29 27 -30 58 -3 58 19 0 21 5 18 60 -2 34 -7 59 -13 58 -5 -2 -9 -13
-7 -25 3 -27 -14 -39 -33 -23 -22 18 -19 67 4 80 26 14 64 13 79 -2 7 -7 12
-40 12 -80 l0 -68 50 0 50 0 0 80 0 80 285 0 c279 0 285 0 275 19 -15 29 -12
72 7 93 26 29 88 24 123 -10z m-6428 -58 c51 -17 86 -48 68 -59 -6 -4 -19 0
-28 8 -24 21 -92 40 -127 34 -26 -3 -25 -4 9 -6 41 -1 126 -36 126 -51 0 -17
-17 -19 -36 -5 -10 8 -23 15 -29 15 -5 0 1 -7 13 -16 23 -16 31 -40 10 -31
-47 19 -53 20 -30 3 21 -16 22 -43 1 -30 -5 3 -8 0 -7 -7 2 -9 -12 -14 -44
-15 -50 -2 -61 8 -30 25 9 6 12 11 7 11 -6 0 -16 -5 -22 -11 -17 -17 -37 -1
-22 17 10 12 9 13 -4 9 -28 -11 -28 14 0 29 15 8 23 15 17 16 -5 0 -19 -7 -30
-15 -24 -19 -34 -19 -34 0 0 8 17 23 38 34 20 11 30 20 21 21 -9 0 -28 -9 -42
-20 -41 -33 -67 -21 -29 13 50 46 128 57 204 31z m7858 -59 c0 -9 -9 -15 -25
-15 l-25 0 0 -140 c0 -133 -1 -140 -20 -140 -19 0 -20 7 -20 140 l0 140 -30 0
-30 0 0 -140 0 -140 -25 0 c-25 0 -25 1 -25 80 l0 80 -45 0 c-41 0 -45 -2 -45
-24 0 -14 -4 -28 -10 -31 -14 -9 -60 40 -60 65 0 18 6 20 80 20 l80 0 0 45 0
45 -105 0 -105 0 0 -140 c0 -133 -1 -140 -20 -140 -17 0 -20 7 -20 40 0 37 -2
40 -19 30 -36 -19 -90 -12 -116 15 -27 26 -31 46 -15 76 10 17 7 19 -20 19
-20 0 -30 5 -30 15 0 12 17 15 90 15 70 0 90 -3 90 -14 0 -8 -16 -16 -40 -20
-30 -5 -43 -13 -49 -29 -17 -45 18 -68 67 -43 37 19 42 32 42 112 l0 64 -125
0 -125 0 0 -135 0 -134 30 -16 c31 -16 83 -83 74 -97 -10 -16 -30 -7 -52 26
-29 43 -72 62 -101 46 -12 -6 -21 -14 -21 -19 0 -17 30 -32 50 -26 16 5 20 2
20 -14 0 -17 -6 -21 -35 -21 -34 0 -75 27 -75 50 0 24 26 61 47 66 21 6 23 12
23 70 l0 64 -57 0 c-89 0 -92 -8 -34 -72 44 -49 49 -57 36 -68 -13 -11 -22 -8
-52 21 -19 19 -53 61 -74 94 -36 55 -37 61 -22 73 15 11 20 10 30 -4 18 -25
43 -10 43 26 0 55 -15 70 -70 70 -38 0 -50 4 -50 15 0 13 62 15 495 15 433 0
495 -2 495 -15z m2462 -2 c32 -29 20 -97 -25 -133 -20 -17 -20 -17 2 -39 17
-17 29 -21 49 -16 48 12 52 22 52 116 l0 89 225 0 c193 0 225 -2 225 -15 0 -8
-9 -15 -20 -15 -19 0 -20 -7 -20 -140 0 -133 -1 -140 -20 -140 -18 0 -20 7
-20 80 l0 80 -44 0 c-38 0 -45 -3 -50 -25 -4 -16 -13 -25 -26 -25 -21 0 -50
35 -50 62 0 16 10 18 85 18 l85 0 0 45 0 45 -110 0 -110 0 0 -140 0 -140 -25
0 -25 0 0 140 0 140 -30 0 -30 0 0 -140 c0 -133 -1 -140 -20 -140 -17 0 -20 7
-20 38 l0 39 -54 -5 c-51 -4 -54 -3 -82 32 -26 32 -34 36 -74 36 -77 0 -80
-11 -21 -73 45 -48 49 -56 36 -67 -13 -11 -21 -8 -52 21 -19 19 -53 61 -75 94
-36 55 -38 61 -22 72 14 10 19 10 29 -4 7 -10 19 -14 29 -10 18 7 21 43 6 81
-9 24 -14 26 -70 26 l-60 0 0 -140 c0 -133 -1 -140 -20 -140 -18 0 -20 7 -20
70 l0 70 -57 0 c-89 0 -92 -8 -34 -72 44 -49 49 -57 36 -68 -13 -11 -22 -8
-52 21 -19 19 -53 61 -74 94 -36 55 -37 61 -22 73 15 11 20 10 30 -4 18 -25
43 -10 43 26 0 55 -15 70 -70 70 -38 0 -50 4 -50 15 0 13 40 15 302 15 266 0
304 -2 320 -17z m1508 2 c0 -8 -9 -15 -20 -15 -19 0 -20 -7 -20 -140 0 -133
-1 -140 -20 -140 -19 0 -20 7 -20 140 l0 140 -35 0 -35 0 0 -140 c0 -133 -1
-140 -20 -140 -18 0 -20 7 -20 80 l0 80 -45 0 c-41 0 -45 -2 -45 -25 0 -38
-44 -35 -65 5 -9 17 -13 35 -10 40 3 6 42 10 86 10 l79 0 0 45 0 45 -173 0
-173 0 4 -40 c3 -28 -1 -47 -12 -59 -14 -15 -14 -20 -3 -30 11 -9 17 -8 27 4
21 25 75 19 99 -11 25 -31 27 -64 7 -103 -23 -43 -43 -56 -61 -41 -14 12 -14
15 3 34 36 40 39 87 5 100 -25 10 -53 -23 -53 -61 0 -73 -85 -107 -157 -63
-52 31 -108 160 -73 168 10 2 21 -14 33 -47 18 -51 74 -111 104 -111 25 0 53
30 53 57 0 39 -18 62 -55 69 -43 8 -46 30 -6 39 38 8 53 27 49 62 l-3 28 -112
3 c-91 2 -113 5 -113 17 0 13 55 15 400 15 349 0 400 -2 400 -15z m5838 -150
c106 0 36 -32 -84 -38 -67 -3 -92 -9 -144 -36 -66 -35 -92 -35 -83 -2 6 22 5
22 -74 26 -12 0 -30 9 -41 18 -10 9 -25 17 -32 17 -10 0 -11 3 -3 11 5 5 38 9
74 7 58 -3 64 -5 67 -25 4 -28 17 -29 67 -3 57 30 104 39 155 32 25 -4 69 -7
98 -7z m-17790 -15 c40 -18 52 -33 34 -44 -5 -3 -28 2 -52 10 -33 11 -55 13
-94 6 l-51 -10 71 -1 c39 0 88 -8 108 -16 25 -11 42 -13 54 -6 16 9 16 10 0
16 -24 10 -13 24 36 46 59 27 111 24 184 -11 35 -17 70 -30 78 -30 26 0 14
-19 -18 -29 l-33 -9 37 -1 c20 -1 39 -5 42 -10 3 -4 -56 -6 -132 -4 -83 3
-147 1 -162 -5 -18 -8 27 -11 173 -11 l197 -1 0 -45 0 -45 -40 26 c-43 29 -35
31 -106 -21 -18 -14 -23 -13 -54 10 -19 14 -39 25 -45 25 -7 0 -43 -26 -81
-58 -91 -75 -114 -90 -155 -95 -32 -4 -32 -4 7 -5 52 -2 109 17 185 64 l60 37
42 -21 c23 -11 54 -25 70 -31 49 -19 29 -29 -70 -36 -131 -8 -150 -12 -78 -15
104 -4 23 -18 -115 -20 -97 -1 -119 -4 -100 -12 15 -6 66 -8 123 -5 74 4 97 2
97 -7 0 -16 -263 -29 -330 -16 -25 5 -79 6 -120 3 -72 -5 -77 -4 -91 18 -28
42 -32 79 -12 95 58 46 65 46 154 7 46 -20 93 -42 105 -50 11 -7 23 -10 27 -7
4 4 -10 15 -31 25 -20 11 -50 30 -67 43 l-30 25 38 16 c38 16 39 15 90 -15 29
-17 63 -38 76 -48 20 -13 23 -14 19 -2 -2 8 -24 29 -49 47 -24 18 -56 42 -71
53 -35 26 -41 26 -83 -11 l-35 -31 -40 27 c-42 29 -65 28 -95 -5 -32 -35 -46
-26 -43 28 l3 47 200 5 c148 4 190 7 161 14 -21 5 -95 6 -162 3 -72 -3 -122
-1 -118 4 3 5 22 9 42 10 l37 1 -32 9 c-32 9 -46 29 -20 29 6 0 41 14 77 30
76 34 128 37 188 10z m-383 -282 c4 -18 8 -40 9 -48 0 -8 3 -17 7 -20 3 -3 13
-19 22 -36 9 -18 39 -56 66 -86 28 -31 47 -58 44 -62 -4 -4 0 -4 8 -1 19 7 72
-33 63 -47 -4 -7 -2 -8 4 -4 6 4 35 0 64 -9 29 -9 80 -18 113 -21 33 -3 66 -7
73 -9 6 -3 12 -1 12 3 0 4 14 9 31 10 17 1 44 9 60 17 16 9 29 13 29 10 0 -4
14 3 30 15 17 12 30 19 30 15 0 -3 6 -1 13 5 45 38 61 50 69 50 4 0 8 6 8 14
0 17 27 29 35 16 4 -6 11 -10 17 -10 6 0 5 6 -3 16 -11 13 -9 23 11 60 26 47
35 53 43 30 4 -9 14 -12 26 -9 12 3 21 1 21 -5 0 -13 -29 -24 -43 -15 -9 5 -9
3 0 -8 15 -19 0 -46 -57 -106 -57 -58 -127 -106 -142 -97 -7 4 -8 3 -4 -4 4
-7 2 -12 -4 -12 -6 0 -13 7 -16 15 -9 22 -23 19 -17 -3 8 -31 -57 -52 -179
-58 -67 -4 -78 -2 -78 12 0 13 -3 14 -14 5 -18 -15 -76 -3 -69 15 3 8 -1 14
-11 14 -9 0 -16 -4 -16 -10 0 -9 -30 -2 -40 9 -3 3 -18 13 -35 22 -16 9 -29
21 -27 28 2 8 -4 10 -18 6 -15 -5 -20 -2 -20 11 0 10 -3 15 -6 11 -3 -3 -16 4
-29 16 -21 21 -21 23 -6 41 15 18 15 18 -8 5 -19 -11 -25 -11 -28 -1 -3 7 -12
19 -20 27 -8 9 -12 22 -9 30 3 9 0 15 -9 15 -8 0 -19 9 -25 20 -6 11 -8 20 -4
20 3 0 1 7 -6 15 -7 8 -9 15 -5 15 4 0 2 6 -4 14 -19 22 -24 68 -9 77 27 17
45 9 53 -23z m804 -67 c28 -18 -2 -31 -73 -31 -65 0 -75 -3 -97 -26 -13 -14
-42 -35 -64 -47 -28 -15 -35 -22 -23 -25 9 -2 30 4 46 12 28 15 30 14 36 -7 8
-32 -12 -47 -31 -22 -15 20 -15 20 -10 -2 4 -16 1 -23 -10 -23 -9 0 -13 6 -9
15 3 8 1 15 -5 15 -7 0 -9 -10 -5 -26 5 -17 3 -23 -4 -19 -5 3 -10 0 -11 -7 0
-7 -5 -2 -11 12 -9 23 -11 24 -17 6 -7 -19 -8 -19 -13 2 -5 16 -2 22 10 22 11
0 13 3 5 11 -6 6 -25 9 -43 7 -39 -4 -54 -28 -18 -28 18 0 23 -5 23 -25 0 -14
-5 -27 -12 -29 -15 -6 -27 10 -18 23 3 5 1 12 -5 16 -5 3 -10 -3 -10 -14 0
-22 -24 -29 -36 -10 -4 8 -9 7 -15 -2 -7 -11 -9 -11 -9 1 0 13 -1 13 -10 0
-10 -15 -11 -14 -15 28 -2 20 2 22 29 20 47 -4 47 15 -1 24 -40 6 -89 26 -81
33 1 1 34 -2 72 -7 77 -10 137 -6 71 5 -168 29 -208 37 -213 42 -12 11 6 12
78 3 114 -14 279 -7 310 15 13 9 34 17 45 17 12 0 30 7 41 15 21 16 81 20 103
6z m5571 -139 l0 -109 -49 -2 c-41 -1 -52 3 -65 21 -40 57 -4 133 60 126 33
-4 34 -3 34 34 0 21 5 38 10 38 6 0 10 -43 10 -108z m5764 82 c20 -20 20 -63
0 -92 -11 -15 -25 -22 -50 -22 -33 0 -34 -1 -34 -40 0 -22 -4 -40 -10 -40 -6
0 -10 42 -10 105 l0 105 44 0 c27 0 51 -6 60 -16z m-4150 -66 c9 -12 16 -36
16 -53 0 -49 -25 -75 -70 -75 -29 0 -43 6 -54 22 -22 31 -20 84 4 108 28 28
84 27 104 -2z m610 0 c9 -12 16 -36 16 -53 0 -49 -25 -75 -70 -75 -29 0 -43 6
-54 22 -22 31 -20 84 4 108 28 28 84 27 104 -2z m777 1 c17 -17 20 -29 16 -62
-7 -48 -28 -67 -72 -67 -41 0 -69 31 -69 75 0 19 8 43 19 55 24 27 78 27 106
-1z m1065 13 c16 -10 34 -48 34 -70 0 -35 -38 -72 -75 -72 -38 0 -75 37 -75
75 0 37 37 75 73 75 18 0 37 -4 43 -8z m220 0 c16 -10 34 -48 34 -70 0 -35
-38 -72 -75 -72 -38 0 -75 37 -75 75 0 37 37 75 73 75 18 0 37 -4 43 -8z m182
-89 c-2 -81 -6 -97 -23 -109 -22 -16 -102 -15 -97 1 1 5 20 8 41 6 31 -2 42 2
50 18 17 32 13 42 -14 35 -43 -11 -72 3 -84 39 -12 36 -7 61 17 90 11 13 28
17 65 16 l49 -2 -4 -94z"/>
<path d="M8870 8196 c0 -54 4 -79 16 -90 19 -20 27 -20 64 -1 29 15 30 18 30
90 l0 75 -55 0 -55 0 0 -74z"/>
<path d="M9340 8230 l0 -40 -49 0 c-58 0 -81 -19 -55 -45 13 -13 27 -15 61
-10 39 6 43 4 43 -14 0 -16 -6 -21 -28 -21 -49 0 -70 -40 -32 -60 25 -13 62
-4 89 21 18 17 21 31 21 114 0 95 0 95 -25 95 -22 0 -25 -4 -25 -40z"/>
<path d="M7438 8224 c3 -37 0 -50 -19 -71 l-24 -25 24 -19 c27 -22 63 -19 94
8 13 12 17 32 17 85 l0 68 -48 0 -47 0 3 -46z"/>
<path d="M1605 7171 c-3 -12 -3 -25 0 -31 3 -5 2 -10 -4 -10 -6 0 -13 -17 -17
-37 -4 -21 -14 -49 -23 -62 -12 -18 -12 -26 -3 -29 6 -2 12 -10 12 -18 0 -18
14 -18 30 1 9 10 9 15 1 15 -6 0 -2 9 10 21 25 25 32 20 31 -22 -1 -29 0 -30
17 -15 24 22 38 20 18 -2 -15 -16 -15 -21 -2 -38 13 -18 14 -18 8 5 -5 18 -3
22 7 16 10 -6 12 -1 7 23 -4 18 -2 32 3 32 14 0 23 40 12 53 -6 7 -13 33 -17
60 -7 42 -25 77 -25 47 0 -7 -7 -9 -15 -6 -8 3 -21 9 -29 12 -9 3 -17 -3 -21
-15z"/>
<path d="M17050 7007 c-60 -29 -190 -123 -187 -136 2 -16 296 -139 353 -148
26 -4 44 1 82 26 55 35 62 37 62 16 0 -14 6 -16 51 -19 9 -1 25 -9 36 -18 10
-10 34 -19 53 -22 19 -2 54 -9 78 -16 30 -8 47 -8 56 -1 9 8 33 2 83 -19 39
-16 81 -32 94 -34 13 -3 26 -5 29 -6 6 -3 30 -6 55 -8 17 -2 18 -4 5 -12 -13
-8 -12 -10 3 -10 9 0 17 -4 17 -10 0 -5 8 -10 18 -10 10 0 22 -4 27 -9 6 -4
25 -13 43 -19 l33 -11 -3 32 c-3 31 -6 33 -153 93 -82 34 -168 69 -189 79 -65
30 -140 57 -160 59 -25 1 -33 26 -9 26 16 1 15 3 -6 20 -28 24 -49 26 -57 5
-4 -8 -10 -13 -15 -10 -4 3 -6 12 -3 19 3 7 -2 16 -10 19 -9 4 -16 17 -16 31
0 20 -8 27 -47 40 -58 20 -63 20 -63 0 0 -11 -5 -14 -17 -9 -43 18 -206 75
-212 75 -3 -1 -17 -6 -31 -13z m109 -59 c45 -17 81 -34 81 -37 -1 -3 -26 -24
-58 -45 l-57 -39 -80 28 c-44 15 -86 31 -93 34 -13 7 92 89 115 90 6 1 48 -13
92 -31z"/>
<path d="M2000 6191 c0 -27 4 -31 28 -32 23 -2 24 -2 5 -6 -24 -5 -31 -19 -12
-25 7 -2 7 -12 -2 -31 -10 -21 -10 -44 -1 -105 6 -42 21 -162 32 -267 12 -104
24 -197 27 -205 3 -8 7 -50 9 -93 3 -80 9 -101 25 -92 5 4 9 0 9 -7 0 -8 23
-21 58 -30 l57 -16 -67 5 c-53 3 -68 1 -68 -10 0 -17 21 -43 40 -50 8 -3 3 -6
-13 -6 -26 -1 -27 -3 -24 -43 3 -30 9 -44 20 -46 16 -3 25 -23 10 -21 -20 3
-24 -2 -14 -15 8 -9 8 -16 2 -20 -11 -7 -3 -37 13 -48 7 -5 7 -8 -2 -8 -8 0
-10 -5 -5 -12 4 -7 6 -40 5 -73 -2 -33 3 -80 10 -105 12 -38 18 -45 48 -53 19
-4 43 -8 52 -8 24 0 30 -26 11 -49 -12 -13 -30 -20 -55 -20 l-39 0 16 -30 c14
-26 14 -30 1 -30 -11 0 -14 -9 -11 -37 2 -21 4 -47 4 -59 1 -24 38 -44 84 -44
18 0 39 -5 47 -10 10 -7 -8 -8 -57 -4 l-72 7 0 -49 c1 -30 8 -56 17 -67 12
-13 13 -20 5 -25 -9 -5 -9 -19 -3 -47 5 -22 10 -56 10 -75 0 -36 31 -77 49
-65 5 3 11 -2 15 -10 4 -11 -2 -15 -24 -15 -17 0 -30 -4 -30 -10 0 -5 14 -10
31 -10 22 0 32 5 36 20 5 17 7 18 21 4 10 -11 25 -14 47 -10 25 5 34 2 39 -10
9 -24 9 -24 -26 -23 -58 2 -137 -13 -142 -28 -8 -21 35 -33 122 -35 44 -1 60
-3 38 -5 -28 -3 -36 -7 -26 -13 25 -15 1 -25 -61 -25 -48 0 -59 -3 -59 -16 0
-39 34 -46 250 -53 47 -1 94 -5 105 -8 11 -4 43 -12 70 -18 28 -7 54 -17 60
-21 12 -12 -59 -11 -126 1 -30 6 -97 12 -149 14 -52 2 -107 8 -121 14 -15 6
-36 8 -48 5 -27 -7 -27 -39 -1 -46 14 -4 19 -12 18 -28 -3 -19 3 -24 32 -30
19 -4 45 -5 57 -2 15 3 48 -8 94 -32 59 -30 76 -35 93 -26 41 20 99 41 114 41
8 0 20 7 26 15 9 13 15 13 37 1 15 -7 44 -16 65 -19 22 -3 53 -9 71 -12 26 -6
32 -4 38 14 6 21 39 29 49 12 4 -5 19 -3 37 6 34 17 48 11 29 -13 -11 -13 -11
-17 0 -24 11 -7 11 -11 1 -24 -19 -23 -7 -33 50 -40 43 -6 53 -4 65 11 9 12
13 14 14 5 0 -18 -19 -35 -55 -47 -20 -7 -32 -20 -38 -42 -11 -37 -30 -47 -59
-32 -20 11 -20 11 0 32 21 24 25 56 8 58 -6 1 -21 0 -33 -1 -13 -1 -23 3 -23
9 0 6 11 11 25 11 16 0 25 6 25 15 0 8 -7 15 -15 15 -8 0 -15 4 -15 8 0 12
-55 13 -84 2 -14 -5 -26 -16 -26 -25 0 -8 -7 -15 -16 -15 -8 0 -12 5 -9 10 4
7 -3 8 -22 4 -40 -10 -45 -14 -38 -33 4 -10 3 -13 -4 -6 -5 6 -11 26 -13 45
-4 48 -37 54 -56 11 -12 -26 -20 -31 -65 -38 -29 -4 -45 -9 -35 -11 9 -2 19
-10 22 -18 5 -13 -9 -14 -97 -10 -56 2 -126 10 -155 16 -29 7 -68 9 -87 6 -29
-6 -32 -10 -31 -38 1 -25 6 -32 26 -34 14 -1 71 -5 128 -10 108 -7 158 -28 55
-22 -58 3 -58 3 -56 -24 2 -33 -26 -44 -82 -34 -34 7 -35 6 -35 -27 0 -35 1
-35 97 -41 29 -1 42 -16 14 -16 -15 0 -22 -6 -20 -17 3 -37 -2 -42 -43 -45
-41 -3 -43 -4 -49 -43 -10 -60 6 -147 35 -194 26 -40 26 -41 5 -41 -15 0 -19
-4 -15 -16 3 -9 6 -19 6 -23 0 -5 11 -6 24 -4 16 4 23 10 19 20 -5 11 3 13 44
7 29 -3 74 -1 109 7 32 7 65 12 72 10 6 -1 12 5 12 14 0 10 -5 13 -12 9 -6 -4
-8 -3 -4 4 4 7 17 8 37 2 17 -5 34 -9 38 -8 35 4 88 -4 88 -14 0 -7 2 -19 4
-27 3 -12 -21 -15 -142 -15 -106 -1 -151 -5 -163 -15 -13 -11 -17 -11 -22 3
-3 9 -15 16 -26 16 -14 0 -18 -6 -16 -22 2 -19 13 -25 53 -34 l50 -12 -42 -1
c-23 0 -53 3 -67 9 -36 13 -56 3 -56 -30 0 -20 6 -30 23 -35 l22 -8 -22 -4
c-18 -3 -21 -9 -17 -31 2 -15 6 -54 9 -87 2 -33 7 -80 10 -105 4 -25 8 -54 9
-65 2 -14 16 -24 52 -35 27 -8 59 -25 72 -37 24 -25 37 -29 47 -14 6 10 51 7
99 -8 17 -5 63 -9 101 -8 68 2 70 3 73 30 3 26 2 27 -48 27 -28 0 -65 7 -82
16 l-32 16 38 13 c21 8 44 11 51 9 7 -3 16 -1 20 5 3 6 17 11 31 11 13 0 23 3
22 8 -1 4 3 25 9 47 7 22 12 58 12 80 0 22 7 65 15 95 9 30 12 58 8 62 -4 4
-35 8 -69 10 -43 2 -63 7 -63 15 0 7 -10 14 -22 14 -13 1 -27 2 -33 4 -5 1
-16 3 -22 3 -21 3 -15 18 10 29 34 16 119 4 135 -19 15 -20 62 -24 80 -6 7 7
12 27 12 45 0 18 4 33 9 33 5 0 7 -37 5 -82 -2 -62 -7 -85 -19 -94 -11 -8 -13
-14 -5 -19 6 -3 10 -12 8 -18 -1 -7 2 -22 6 -35 5 -14 3 -28 -4 -37 -7 -8 -10
-26 -8 -40 3 -14 0 -29 -7 -35 -20 -17 -6 -58 23 -65 21 -5 23 -8 11 -16 -9
-6 -11 -11 -3 -17 6 -4 13 -15 17 -24 5 -15 0 -18 -33 -18 -21 0 -41 -4 -44
-9 -6 -10 26 -21 62 -21 18 0 22 -6 22 -29 0 -28 -1 -29 -46 -24 -43 4 -45 3
-42 -19 2 -18 14 -26 56 -38 l52 -15 0 -46 c0 -41 4 -48 36 -71 37 -27 34 -37
-10 -40 -14 -1 -28 -8 -30 -15 -7 -18 2 -39 17 -41 31 -3 103 -14 116 -18 11
-4 10 -7 -4 -18 -16 -11 -21 -11 -33 1 -19 19 -35 12 -42 -18 -7 -27 -15 -28
-265 -15 -281 15 -272 15 -283 -8 -21 -42 -23 -76 -7 -83 9 -3 14 -12 11 -19
-3 -8 1 -14 9 -14 8 0 15 -4 15 -10 0 -5 -7 -10 -15 -10 -8 0 -15 -4 -15 -10
0 -5 21 -11 48 -12 26 -1 56 -2 66 -2 26 -2 33 -26 7 -26 -11 0 -23 -4 -26
-10 -3 -5 -21 -10 -39 -10 -26 0 -35 -5 -40 -22 -11 -44 -7 -58 18 -58 14 0
28 -4 31 -10 10 -16 25 -12 25 6 0 11 5 14 16 10 9 -3 39 -6 69 -6 44 0 53 -3
58 -20 5 -18 13 -20 79 -18 40 1 89 -1 108 -5 21 -4 37 -2 41 5 4 6 41 11 90
11 51 0 64 2 34 4 -27 2 -54 9 -60 14 -6 6 22 7 80 3 50 -4 104 -7 120 -8 17
-1 43 -8 58 -14 39 -17 57 -15 57 6 0 37 -18 47 -106 57 -95 11 -116 26 -60
45 19 6 36 15 38 21 4 11 211 -7 246 -21 13 -6 20 -15 17 -21 -4 -5 1 -19 11
-30 10 -11 12 -19 6 -19 -7 0 -12 -5 -12 -11 0 -6 9 -8 21 -4 14 5 19 4 15 -4
-5 -7 -1 -9 8 -5 9 3 16 9 16 13 0 3 20 5 45 3 28 -3 45 0 45 7 0 6 -7 11 -15
11 -8 0 -15 5 -15 11 0 7 -10 9 -27 5 -19 -4 -23 -4 -14 3 7 5 10 14 7 20 -4
6 -3 11 3 11 5 0 11 -6 13 -12 3 -8 10 -3 17 11 12 21 11 23 -2 18 -9 -3 -18
1 -21 9 -9 23 -8 24 13 24 11 0 22 6 25 13 5 9 7 9 12 -1 3 -6 10 -10 14 -7 5
3 17 2 27 -4 30 -15 136 -32 143 -22 4 8 61 17 119 20 11 1 11 4 1 16 -10 12
-9 16 4 20 53 17 51 16 36 25 -13 8 -12 10 3 10 9 0 17 -7 17 -15 0 -8 6 -12
14 -9 20 8 9 32 -17 40 -12 3 -29 13 -38 21 -14 12 -17 12 -23 -3 -4 -12 -2
-15 9 -10 8 3 15 1 15 -4 0 -13 -37 -13 -45 0 -3 6 -21 10 -40 10 -19 0 -37 5
-41 11 -4 7 -18 8 -38 4 -17 -4 -65 -8 -106 -10 -44 -1 -76 -7 -78 -14 -3 -8
-9 -8 -25 0 -16 9 -23 8 -32 -5 -7 -9 -22 -16 -33 -16 -11 0 -24 -4 -27 -10
-3 -6 4 -10 17 -10 45 -1 79 -50 44 -63 -18 -7 -56 3 -56 14 0 5 -8 9 -18 9
-10 0 -24 6 -31 13 -11 10 -11 8 -2 -10 10 -20 9 -23 -7 -23 -11 0 -33 3 -51
6 l-31 6 24 19 c30 23 33 23 39 2 4 -15 5 -16 6 -2 0 9 11 19 24 22 17 5 22
13 22 41 l0 34 -67 7 c-38 3 -68 10 -68 16 0 5 -7 9 -15 9 -18 0 -20 -20 -2
-20 8 -1 -55 -28 -69 -30 -1 0 -13 11 -28 25 -15 14 -34 25 -42 25 -18 0 -13
24 4 26 7 1 16 2 22 3 5 0 12 17 16 36 4 21 12 35 21 35 28 0 -21 38 -60 45
-20 4 -40 11 -43 16 -3 5 -10 7 -15 4 -5 -4 -12 2 -15 12 -3 10 -9 25 -13 33
-13 26 -1 90 18 91 19 1 85 -2 88 -4 0 -1 4 -24 6 -50 4 -34 2 -50 -7 -53 -7
-3 -13 -12 -13 -20 0 -11 7 -14 24 -9 13 3 23 1 23 -4 0 -11 19 -7 57 11 28
13 55 4 47 -17 -3 -8 -1 -15 5 -15 6 0 11 7 11 15 0 17 12 19 26 5 6 -6 33
-12 61 -14 l51 -4 7 47 c3 26 5 51 4 57 -6 31 3 44 36 50 19 3 35 12 35 20 0
7 -16 16 -35 20 -32 6 -35 9 -35 40 0 29 4 34 23 34 13 0 28 -5 34 -11 8 -8
13 -8 17 0 12 18 -4 32 -32 29 -15 -2 -28 0 -29 5 -8 21 -1 36 20 40 l22 4
-22 2 c-32 2 -29 19 5 27 15 3 41 12 57 19 35 15 91 9 99 -11 9 -23 -5 -45
-27 -42 -11 2 -22 -3 -24 -9 -3 -9 6 -13 26 -13 17 0 31 -4 31 -9 0 -5 3 -16
6 -25 5 -12 0 -16 -19 -16 -26 0 -37 -15 -30 -38 4 -10 8 -10 19 -1 11 9 14 9
14 0 0 -7 6 -19 14 -26 17 -18 30 -115 20 -158 -7 -31 -8 -31 -14 -7 -8 35
-61 41 -84 8 -25 -35 -20 -44 29 -58 25 -7 49 -20 54 -28 6 -11 16 -13 37 -8
16 4 38 7 49 6 23 -1 63 0 120 3 29 1 40 -2 40 -13 0 -8 9 -16 20 -17 11 -2
14 0 7 3 -23 11 -1 24 41 25 33 1 37 2 18 8 -35 9 -41 34 -7 25 19 -4 26 -2
26 8 0 13 -47 27 -151 43 -38 6 -54 -4 -60 -38 -5 -24 -19 -26 -33 -4 -9 15
-7 21 8 33 19 14 19 14 -3 14 -17 0 -22 4 -17 16 3 9 6 24 6 35 0 12 7 19 18
19 14 0 17 7 14 39 -3 31 0 39 16 43 10 3 33 0 50 -8 30 -12 31 -12 34 18 2
18 9 33 16 36 9 3 11 -3 6 -22 -5 -22 -3 -26 14 -26 11 0 22 -7 26 -15 7 -18
46 -20 46 -2 0 16 77 20 86 5 5 -7 1 -9 -9 -5 -10 3 -17 2 -17 -2 0 -5 22 -12
48 -16 57 -8 67 -13 74 -41 5 -19 0 -22 -39 -27 -50 -5 -61 -13 -46 -28 8 -8
17 -7 31 2 18 11 24 11 39 -3 10 -9 33 -19 51 -23 47 -10 40 -28 -8 -21 -45 6
-63 -12 -40 -39 10 -12 17 -11 51 11 22 13 44 22 48 19 14 -8 204 -9 231 0 14
4 37 16 52 26 31 22 45 23 81 7 20 -10 26 -20 25 -38 -3 -43 23 -88 55 -94 40
-8 54 -7 42 2 -6 4 -8 40 -5 92 5 84 5 85 33 88 15 2 25 8 22 13 -4 5 5 9 18
9 20 0 77 -48 77 -64 0 -3 -26 -6 -57 -8 -58 -3 -58 -3 -58 -35 -1 -28 4 -33
30 -40 45 -10 44 -10 53 -13 4 -1 11 -2 16 -1 4 1 19 -5 33 -14 19 -13 22 -19
13 -30 -9 -11 -7 -15 12 -20 35 -8 97 -16 155 -20 61 -4 73 -10 73 -36 0 -14
-7 -19 -26 -19 -14 0 -23 -4 -19 -10 3 -5 11 -7 18 -4 8 3 13 -8 14 -30 2 -23
-2 -36 -12 -40 -8 -3 -15 -12 -15 -21 0 -17 -16 -20 -25 -5 -10 16 -25 12 -26
-7 0 -14 -2 -15 -6 -3 -4 8 -12 20 -19 28 -11 10 -14 6 -20 -23 l-6 -35 -60 0
c-37 0 -57 4 -53 10 4 6 -6 10 -22 10 -51 0 -103 12 -103 24 1 6 9 28 19 50
16 34 23 39 57 42 76 6 109 15 93 25 -19 12 -109 11 -109 -1 0 -11 -21 -9
-120 10 -30 6 -100 11 -154 11 -95 1 -101 0 -122 -24 -16 -19 -25 -22 -33 -14
-6 6 -11 7 -11 2 0 -5 -6 0 -14 10 -13 18 -14 17 -21 -13 -6 -31 -21 -49 -31
-39 -3 3 2 21 10 41 12 29 12 36 2 36 -8 0 -19 -7 -26 -15 -9 -10 -9 -15 -1
-15 6 0 11 -4 11 -9 0 -5 -10 -7 -22 -4 -17 3 -19 2 -10 -5 10 -7 2 -11 -28
-16 -23 -3 -46 -4 -51 0 -20 12 -59 -6 -59 -27 0 -13 -6 -19 -17 -17 -12 2
-19 -4 -21 -19 -4 -26 16 -30 47 -12 10 7 30 9 45 5 23 -6 25 -9 15 -27 -6
-11 -9 -23 -6 -25 5 -5 280 -26 321 -25 39 2 41 4 44 42 3 41 18 59 48 59 31
0 31 -25 2 -35 -22 -6 -22 -7 5 -15 39 -12 98 -14 121 -5 13 6 21 4 24 -3 2
-7 8 -10 13 -7 5 3 25 3 45 -1 29 -5 33 -9 20 -16 -9 -5 -14 -13 -11 -17 8
-14 -22 -33 -47 -29 -17 2 -23 10 -23 28 0 18 -5 25 -20 25 -17 0 -20 -7 -22
-47 -2 -45 -1 -47 21 -38 13 4 29 4 37 0 7 -5 24 -7 36 -3 14 3 34 -2 50 -12
18 -12 28 -14 31 -7 5 17 42 15 48 -3 6 -16 77 -21 122 -9 40 11 27 50 -15 45
-24 -3 -13 8 25 26 20 9 40 21 44 27 3 5 24 0 50 -12 l43 -22 -47 0 c-64 0
-61 -16 3 -22 28 -3 55 -11 60 -19 6 -10 31 -14 84 -15 55 0 79 -5 86 -15 6
-9 4 -15 -6 -17 -8 -2 -15 -7 -15 -12 0 -5 -10 -12 -22 -16 -34 -11 -3 -21 87
-27 81 -6 98 -3 102 21 2 8 -11 12 -40 12 -58 0 -70 10 -58 43 11 29 26 35 34
15 3 -10 7 -10 17 -1 9 9 19 9 38 0 20 -9 26 -9 29 0 3 9 15 7 41 -7 46 -25
52 -25 52 0 0 20 -19 25 -105 22 -16 0 -22 2 -12 4 11 4 17 15 17 35 0 26 3
29 31 29 17 0 39 5 50 10 15 9 21 7 25 -5 4 -11 20 -15 55 -15 42 0 51 -3 58
-22 5 -14 5 -26 -1 -29 -5 -3 -2 -9 7 -13 24 -9 24 -9 22 20 -1 15 4 29 11 31
7 3 10 -1 6 -10 -3 -8 -1 -18 4 -21 11 -7 26 40 17 54 -4 6 -26 10 -51 10 -26
0 -44 5 -44 11 0 8 14 10 41 6 30 -4 42 -2 46 10 3 8 0 19 -8 24 -13 8 -23 53
-10 45 3 -2 16 0 29 5 18 7 22 16 22 54 0 25 -4 45 -10 45 -5 0 -10 5 -10 10
0 6 9 10 20 10 14 0 20 7 20 21 0 21 2 21 98 14 53 -5 144 -9 202 -10 58 -2
123 -6 145 -10 35 -7 38 -6 28 7 -11 12 -9 17 13 27 17 7 31 8 42 1 14 -8 12
-10 -13 -11 -30 -1 -30 -1 -5 -9 21 -7 22 -8 5 -10 -47 -3 23 -18 87 -18 36 0
70 -2 75 -5 4 -3 58 -8 118 -12 61 -3 139 -8 175 -11 36 -2 121 -9 189 -14 68
-5 126 -8 130 -6 3 2 27 0 52 -4 26 -5 102 -11 170 -15 68 -3 180 -10 249 -15
69 -5 181 -12 250 -14 69 -3 136 -8 150 -11 45 -9 952 -67 958 -61 3 4 0 12
-6 18 -14 14 -16 28 -3 28 5 0 12 -11 15 -25 7 -26 2 -25 121 -31 22 -1 221
-14 443 -29 381 -26 403 -27 421 -11 18 16 20 16 28 1 9 -16 93 -22 528 -40
61 -2 127 -7 149 -11 27 -5 40 -3 47 7 6 10 9 10 9 2 0 -7 9 -13 20 -13 14 0
18 5 14 18 -5 16 -5 16 6 0 13 -21 41 -26 180 -32 58 -3 168 -10 245 -15 77
-6 201 -12 275 -16 74 -3 158 -8 185 -10 44 -5 441 -25 1055 -55 230 -11 506
-28 570 -35 25 -3 119 -9 210 -15 91 -6 253 -17 360 -25 107 -7 267 -19 355
-25 88 -6 205 -15 260 -20 55 -5 165 -14 245 -20 80 -6 190 -15 245 -20 55 -6
181 -14 280 -20 99 -6 214 -12 255 -15 308 -18 447 -28 457 -31 14 -4 64 -107
83 -174 7 -25 23 -67 36 -95 34 -78 119 -285 139 -338 9 -27 23 -51 30 -54 8
-2 12 -10 9 -17 -3 -7 2 -26 11 -42 8 -16 15 -35 15 -42 0 -7 8 -32 19 -55 29
-66 34 -81 32 -90 -1 -4 5 -18 14 -30 8 -12 15 -29 15 -38 0 -9 7 -22 15 -29
8 -7 12 -17 9 -22 -4 -6 4 -8 22 -4 16 3 72 10 124 15 118 13 441 59 446 64 4
4 -73 198 -156 392 -5 11 -16 43 -26 70 -10 28 -23 57 -29 65 -14 18 -26 47
-31 75 -4 26 -94 247 -105 259 -5 6 -9 17 -9 25 0 15 -56 174 -81 231 -25 56
-37 88 -57 145 -38 112 -72 200 -96 250 -14 28 -38 81 -53 120 -28 66 -31 70
-73 82 -24 7 -78 15 -119 19 -42 3 -91 10 -109 16 -18 5 -39 7 -47 4 -7 -2
-15 -2 -17 2 -3 6 -319 72 -423 88 -44 7 -110 14 -137 15 -10 0 -18 4 -18 8 0
7 -113 31 -175 37 -134 14 -149 16 -175 27 -20 8 -136 28 -147 25 -4 -1 -18 3
-31 10 -12 7 -27 10 -32 7 -5 -3 -12 0 -15 6 -4 6 -18 8 -31 5 -14 -4 -24 -2
-24 5 0 6 -10 9 -22 8 -13 -1 -30 1 -38 4 -16 7 -150 33 -240 47 -30 5 -118
23 -195 40 -77 18 -163 32 -192 32 -29 1 -50 5 -47 9 3 5 2 9 -3 9 -4 0 -37 5
-73 11 -36 6 -82 11 -103 11 -20 -1 -35 3 -32 8 6 10 -81 23 -97 14 -6 -4 -8
-3 -5 3 4 7 -29 17 -91 27 -53 10 -124 24 -157 31 -70 17 -112 24 -340 64 -93
16 -206 36 -250 46 -44 9 -98 19 -120 21 -22 2 -51 6 -65 9 -236 46 -339 63
-388 64 -30 0 -59 4 -65 9 -23 18 -107 34 -144 28 -25 -4 -31 -3 -18 3 16 7 7
10 -37 16 -32 4 -65 5 -73 1 -9 -3 -13 -2 -10 4 8 12 -62 30 -143 36 -36 3
-69 10 -73 15 -4 7 -9 7 -12 2 -7 -11 -91 2 -142 21 -16 6 -38 9 -47 8 -10 -2
-18 1 -18 7 0 15 -74 34 -79 20 -2 -6 -10 -4 -21 6 -11 10 -40 18 -73 20 -30
1 -59 5 -63 8 -5 2 -36 8 -69 12 -33 3 -78 11 -100 15 -272 60 -389 83 -427
84 -14 1 -24 4 -22 8 5 8 -22 16 -76 22 -19 2 -77 13 -128 25 -51 12 -109 23
-130 26 -99 12 -132 18 -187 32 -115 29 -169 35 -202 22 -21 -8 -34 3 -15 14
4 2 2 3 -4 1 -19 -4 -106 15 -135 30 -16 8 -29 10 -29 5 0 -6 -7 -3 -16 5 -18
19 -26 20 -40 6 -6 -6 -23 -6 -48 1 -30 8 -36 13 -25 21 10 7 0 8 -32 4 -25
-3 -50 -1 -56 5 -14 14 -135 44 -323 80 -85 16 -172 34 -193 40 -21 5 -65 10
-98 10 -36 1 -64 6 -73 14 -7 8 -15 12 -18 10 -2 -2 -22 2 -43 10 -23 8 -56
11 -77 8 -27 -4 -38 -2 -38 7 0 7 -8 10 -20 7 -11 -3 -18 -1 -15 4 6 9 -2 12
-135 35 -175 30 -215 36 -233 36 -10 -1 -15 4 -11 10 4 6 3 8 -3 5 -15 -9 -74
3 -67 14 3 5 1 9 -5 9 -5 0 -12 -6 -14 -12 -4 -10 -6 -10 -6 0 -1 8 -10 10
-28 6 -22 -4 -25 -3 -13 5 12 9 11 11 -8 11 -21 0 -118 24 -226 56 -27 7 -69
14 -92 14 -24 0 -64 7 -90 16 -25 8 -48 13 -51 11 -2 -3 -28 2 -56 10 -29 8
-71 14 -95 14 -25 -1 -41 3 -37 8 8 14 -3 18 -86 36 -118 25 -135 28 -121 17
14 -10 -41 -10 -68 1 -24 9 -94 21 -110 19 -28 -3 -185 21 -195 30 -9 8 6 6
85 -8 19 -3 21 -2 9 5 -21 13 -130 30 -123 19 8 -12 -6 -10 -107 12 -50 11
-94 18 -98 15 -5 -2 -22 0 -40 5 -19 5 -31 5 -31 -1 0 -5 -4 -9 -10 -9 -5 0
-10 6 -10 13 0 7 -10 13 -22 14 -12 1 -33 7 -47 12 -14 6 -75 19 -136 31 -60
11 -126 25 -145 30 -19 5 -44 11 -55 13 -12 2 -18 9 -16 18 14 52 13 59 -4 53
-15 -6 -17 -3 -13 20 5 24 1 30 -27 42 -34 14 -79 21 -155 25 -38 1 -33 3 30
11 41 4 102 10 135 11 l59 3 8 39 c11 50 -9 69 -63 61 -21 -3 -51 -3 -69 0
l-31 7 28 18 c15 11 36 19 45 19 9 0 19 4 22 9 8 12 -4 41 -16 41 -5 0 -6 -4
-3 -10 3 -5 -2 -9 -12 -9 -26 2 -80 16 -65 18 6 0 12 10 12 21 0 11 8 24 18
27 20 8 42 28 42 40 0 14 34 30 78 38 26 4 41 12 39 18 -2 7 -12 11 -21 11 -9
-1 -16 2 -16 7 0 5 6 9 14 9 9 0 12 7 9 19 -3 13 2 21 17 26 20 6 22 12 17 51
-2 24 -1 41 4 38 5 -3 9 5 9 18 0 17 -3 19 -9 9 -5 -8 -10 -9 -12 -2 -4 10
-33 18 -69 20 -10 1 -7 6 8 17 13 9 21 22 18 30 -4 11 4 14 34 14 46 0 57 14
61 80 3 40 1 45 -19 48 -14 2 -22 10 -22 24 0 17 3 18 15 8 29 -24 41 -4 53
82 25 190 35 298 29 304 -4 4 -30 11 -59 15 -70 12 -379 51 -398 51 -8 0 -46
7 -85 15 -38 8 -115 20 -170 28 -55 8 -129 18 -165 24 -36 5 -87 12 -115 15
-27 4 -113 15 -190 26 -77 11 -160 22 -185 25 -25 3 -72 9 -105 14 -100 15
-870 120 -1035 142 -222 29 -293 39 -310 44 -13 4 -151 22 -320 42 -25 2 -63
9 -85 14 -22 5 -110 18 -195 29 -85 12 -193 27 -240 35 -75 13 -131 20 -294
41 -22 2 -58 9 -78 15 -20 5 -67 14 -105 19 -89 12 -193 29 -215 36 -15 4 -18
-1 -18 -25z m3285 -1034 c33 -7 59 -16 58 -20 -2 -4 -3 -14 -3 -22 0 -10 -10
-15 -29 -15 -24 0 -30 -5 -34 -30 -4 -16 -11 -30 -16 -30 -13 0 -22 43 -10 51
12 7 -34 15 -143 25 -68 6 -78 9 -78 26 0 17 5 18 45 12 30 -4 45 -3 45 5 0
15 89 14 165 -2z m-1420 -456 c94 -11 231 -27 305 -36 124 -14 393 -49 465
-61 17 -2 82 -8 145 -12 l115 -7 3 -38 3 -39 -38 26 c-48 33 -76 33 -137 -3
l-49 -29 -46 33 c-70 51 -90 52 -158 14 -32 -18 -79 -47 -105 -66 -135 -97
-199 -93 -379 24 -77 49 -77 55 -2 68 47 7 71 -3 168 -69 57 -39 103 -66 111
-66 2 0 4 5 4 11 0 15 -63 73 -131 120 -31 21 -63 44 -71 52 -42 43 -69 42
-128 -3 -52 -40 -61 -40 -109 2 -55 48 -100 51 -168 12 l-45 -27 7 49 c10 74
12 77 43 70 15 -3 104 -15 197 -25z m820 -272 c58 -28 105 -53 105 -56 0 -5
-225 4 -327 13 -52 5 -73 3 -73 -5 0 -6 6 -11 13 -12 6 0 48 -7 92 -14 l80
-14 -90 5 c-220 12 -357 33 -371 56 -5 8 0 9 17 3 87 -28 226 -12 334 40 39
18 80 34 93 34 12 1 70 -22 127 -50z m-575 -149 c105 -26 277 -50 363 -51 l72
-1 -55 -26 c-51 -25 -65 -27 -180 -27 -107 1 -134 4 -183 24 -32 13 -56 25
-54 27 2 3 33 -2 68 -11 82 -19 247 -30 278 -18 20 8 8 11 -60 16 -81 6 -374
72 -393 88 -12 11 51 1 144 -21z m-1117 -260 c9 -11 24 -20 32 -20 8 0 15 -4
15 -9 0 -10 -48 -21 -91 -21 -22 0 -29 -5 -29 -19 0 -15 -11 -19 -69 -25 -72
-6 -105 -1 -95 16 3 5 13 7 23 3 13 -5 13 -4 4 6 -18 18 -52 19 -46 2 3 -7 -2
-13 -11 -13 -19 0 -20 5 -6 31 8 14 21 19 50 19 30 0 38 3 34 14 -4 11 8 14
56 15 34 0 71 -4 81 -10 16 -8 19 -6 19 11 0 25 11 26 33 0z m2631 -66 c12
-30 6 -34 -49 -34 -49 0 -55 -2 -55 -21 0 -16 5 -20 20 -16 11 3 23 1 26 -4 3
-5 -4 -9 -15 -9 -12 0 -21 -3 -21 -7 0 -5 24 -9 53 -9 35 -1 46 1 32 6 -14 6
-15 9 -4 9 8 1 19 -3 25 -8 5 -4 26 -11 47 -14 34 -5 37 -4 37 18 0 36 19 40
48 11 21 -21 24 -28 14 -38 -10 -10 -15 -10 -22 1 -7 12 -11 12 -24 2 -9 -7
-29 -11 -44 -9 -40 6 -71 -31 -39 -46 14 -7 -45 -1 -87 8 -17 4 -32 3 -36 -4
-4 -7 -16 -7 -38 1 -45 16 -79 5 -77 -23 1 -17 9 -24 31 -28 48 -9 3 -19 -58
-13 -99 9 -93 6 -96 51 -2 33 0 42 12 42 9 0 16 7 16 15 0 9 9 15 24 15 14 0
28 5 31 10 3 6 -2 10 -11 10 -10 0 -15 3 -11 6 9 10 98 -6 92 -16 -3 -5 4 -12
16 -15 27 -9 50 21 46 57 -3 22 2 29 26 37 15 6 26 15 22 21 -4 6 7 10 28 10
23 0 37 -6 41 -16z m376 -34 c8 -5 19 -5 25 0 7 6 15 -1 22 -20 11 -30 11 -30
-27 -30 -25 0 -40 -5 -44 -16 -10 -27 -7 -34 17 -34 12 0 35 -7 52 -16 16 -8
39 -13 52 -9 19 4 23 0 29 -30 8 -45 0 -67 -23 -58 -17 6 -17 5 1 -15 21 -24
21 -29 -13 -257 -11 -77 -21 -142 -21 -145 0 -3 -55 -5 -123 -6 -118 -1 -122
-1 -125 -23 -2 -12 -9 -20 -15 -18 -11 4 -11 36 -1 46 2 2 27 6 55 9 50 5 72
23 53 42 -5 5 -42 10 -82 12 -44 1 -77 7 -84 15 -11 13 2 22 32 21 8 0 22 3
31 6 11 5 18 1 22 -13 4 -18 13 -21 64 -21 32 0 75 -3 96 -6 36 -6 37 -6 37
22 0 21 7 32 23 39 30 13 36 55 8 55 -11 0 -23 5 -26 10 -3 6 -16 10 -27 10
-20 0 -20 1 -4 19 22 24 15 28 -69 36 -39 4 -73 9 -77 12 -13 7 -9 35 5 30 13
-5 67 23 67 35 0 4 -9 8 -21 8 -11 0 -17 5 -14 10 10 16 76 8 114 -12 31 -18
61 -16 32 1 -17 11 1 23 22 15 8 -3 18 -1 21 5 8 12 -11 17 -99 30 l-60 9 50
0 c74 0 75 0 75 21 0 24 -51 45 -90 37 -17 -3 -30 -1 -30 4 0 6 23 10 51 10
47 0 50 2 47 23 -2 15 -11 23 -28 25 -53 6 -77 22 -73 47 4 19 0 24 -26 30
-37 8 -41 25 -7 25 14 0 28 5 31 10 8 13 55 13 75 0z m-670 -255 c0 -22 41
-36 60 -20 27 23 224 43 236 24 3 -5 -3 -9 -14 -9 -10 0 -19 -7 -19 -15 0 -9
4 -11 11 -6 6 5 58 5 116 0 133 -10 137 -11 70 -18 -65 -7 -78 -33 -21 -41 29
-4 36 -10 43 -39 11 -39 9 -42 -20 -34 -17 4 -21 11 -17 24 8 24 -3 24 -27 2
-17 -16 -18 -16 -12 0 4 12 -2 20 -19 28 -30 14 -61 5 -54 -15 9 -23 -15 -35
-66 -34 -55 1 -69 13 -33 29 18 9 24 18 21 33 -2 12 -4 24 -4 29 -1 4 -8 7
-16 7 -21 0 -19 20 3 21 12 0 10 3 -7 10 -13 5 -29 8 -35 5 -6 -2 -2 -5 8 -5
18 -1 18 -2 1 -21 -17 -19 -17 -20 0 -20 10 0 15 -3 12 -7 -4 -3 -36 -5 -72
-4 l-65 2 0 -30 c0 -30 -1 -31 -47 -31 -27 0 -72 3 -100 6 l-53 7 0 38 c0 36
2 39 29 39 30 0 54 21 33 28 -21 7 -13 21 16 25 15 2 30 5 35 6 4 0 7 -6 7
-14z m-1879 -109 c-7 -8 -10 -20 -6 -26 3 -5 -1 -17 -9 -26 -23 -23 -21 -53 3
-47 11 3 28 -4 40 -16 18 -18 22 -18 35 -6 8 8 22 12 30 9 9 -3 35 1 58 10 22
10 44 13 47 8 3 -5 15 -13 25 -19 11 -6 20 -21 21 -34 2 -13 6 -45 10 -70 5
-34 4 -49 -6 -54 -7 -5 -14 -4 -17 3 -2 8 -9 9 -22 2 -24 -13 -66 5 -73 31 -4
13 -14 19 -36 19 -26 0 -31 4 -37 34 -6 33 -8 34 -50 34 -36 0 -44 -3 -44 -18
0 -10 -7 -21 -16 -24 -13 -5 -14 -9 -5 -20 14 -17 0 -29 -22 -20 -13 5 -12 17
9 92 29 104 28 102 7 102 -17 1 -17 1 0 11 12 7 15 17 11 34 -4 17 -1 24 13
27 27 7 50 -17 34 -36z m-411 14 c0 -7 41 -9 120 -7 93 4 122 1 131 -9 7 -8
21 -11 34 -8 13 3 26 1 29 -4 7 -12 -39 -25 -63 -17 -23 7 -45 -19 -38 -46 3
-11 0 -22 -7 -25 -7 -3 -10 -19 -8 -44 3 -32 1 -40 -13 -40 -10 0 -15 -6 -13
-17 2 -13 16 -20 45 -24 49 -6 63 -16 39 -25 -24 -9 -142 9 -138 21 1 6 7 10
14 10 19 0 21 25 1 27 -10 0 -29 3 -43 4 -14 2 -53 6 -88 10 -103 11 -86 26
21 18 57 -4 97 -3 100 3 10 17 -23 53 -48 53 -13 0 -27 5 -31 12 -5 8 -2 9 9
5 12 -4 18 0 23 18 4 15 11 22 20 18 19 -7 64 5 64 17 0 15 -40 12 -40 -2 -1
-9 -5 -8 -13 2 -7 9 -31 17 -57 18 -63 4 -80 11 -73 28 6 16 23 19 23 4z
m2270 -145 c7 -8 19 -15 27 -15 10 0 12 -6 8 -20 -9 -29 4 -65 18 -51 6 6 17
11 25 11 8 0 25 11 38 25 19 21 29 24 66 20 24 -3 60 -7 80 -9 54 -4 59 -16 7
-16 -59 0 -78 -13 -61 -40 10 -17 10 -20 -4 -20 -8 0 -12 -4 -9 -10 4 -6 -5
-10 -19 -10 -16 0 -26 -6 -26 -15 0 -14 14 -20 35 -15 6 2 19 4 30 5 35 3 75
17 75 26 0 5 5 9 10 9 6 0 10 -8 10 -19 0 -23 25 -30 91 -24 48 4 51 3 46 -16
-3 -12 -1 -19 4 -15 5 3 9 0 9 -7 0 -7 -8 -9 -22 -5 -13 3 -57 9 -99 12 -69 6
-79 5 -107 -16 -31 -23 -52 -21 -52 6 0 8 -5 14 -11 14 -7 0 -9 -10 -7 -25 4
-17 1 -25 -9 -25 -8 0 -11 5 -8 11 21 32 -97 64 -120 33 -9 -12 -16 -11 -43
10 -32 23 -61 29 -228 41 l-52 3 -6 -39 c-4 -25 -12 -39 -21 -39 -17 0 -19 18
-6 53 11 28 0 37 -45 37 -35 0 -30 24 14 65 40 37 63 43 81 21 12 -15 115 -28
149 -19 18 4 20 8 11 19 -6 8 -22 14 -35 14 -13 0 -24 5 -24 11 0 12 39 9 119
-7 26 -6 33 -4 29 7 -2 8 -17 15 -33 17 -21 3 -25 6 -14 13 22 14 65 11 79 -6z
m3147 -137 c-1 -16 -5 -28 -9 -28 -3 0 -15 -3 -25 -6 -15 -6 -16 -4 -5 7 21
22 14 39 -15 38 l-28 -1 25 -7 c33 -9 10 -24 -25 -15 -15 4 -25 2 -25 -5 0 -6
-12 -11 -27 -12 l-28 0 25 -12 25 -11 -28 -4 c-36 -5 -75 -72 -41 -72 8 0 14
-4 14 -10 0 -5 -4 -10 -10 -10 -5 0 -10 -7 -10 -15 0 -8 -4 -15 -10 -15 -5 0
-7 8 -4 18 5 16 5 16 -6 0 -14 -22 -32 -24 -23 -2 5 13 2 14 -13 6 -10 -5 -30
-15 -44 -21 -19 -8 -20 -10 -3 -6 27 7 40 -12 20 -32 -13 -13 -18 -13 -44 1
-17 8 -33 12 -37 9 -3 -4 -6 -1 -6 6 0 9 -8 11 -24 7 -14 -3 -27 -2 -31 3 -3
6 15 9 42 8 35 -1 47 2 45 11 -1 8 2 11 8 7 5 -3 10 3 10 14 0 12 -5 21 -11
21 -5 0 -7 5 -3 11 4 7 9 8 13 1 3 -5 21 -13 39 -17 25 -5 32 -3 32 9 0 9 6
16 14 16 11 0 13 9 9 38 -5 30 -3 35 7 25 10 -10 19 -7 42 12 16 14 35 26 41
26 7 1 -13 7 -43 15 l-55 13 55 -5 c30 -3 69 -1 85 4 17 6 42 9 57 8 23 -1 26
-5 25 -28z m-2397 -53 l0 -35 -50 0 c-47 0 -50 -1 -40 -19 8 -16 6 -20 -8 -23
-9 -3 0 -7 22 -9 26 -4 43 -1 53 10 14 13 15 10 8 -30 -5 -24 -8 -52 -7 -62 1
-14 -4 -16 -21 -11 -12 4 -24 10 -27 14 -3 3 -14 10 -25 14 -19 7 -19 8 4 25
23 17 23 19 5 24 -10 3 -70 9 -132 13 -62 4 -115 11 -119 17 -4 6 21 7 73 2
129 -12 128 -12 132 9 5 24 -14 36 -56 36 -21 0 -31 4 -27 11 5 7 25 8 56 4
33 -5 54 -3 64 5 8 7 24 10 34 7 13 -3 21 1 24 14 3 11 12 19 21 19 12 0 16
-10 16 -35z m-2010 -533 c0 -5 15 -16 33 -25 l32 -16 -42 6 c-34 4 -43 2 -43
-9 0 -31 76 -61 91 -36 13 20 18 6 23 -57 l5 -58 -122 8 c-67 4 -151 9 -187
11 -67 3 -81 13 -60 44 7 10 13 11 18 5 7 -11 64 -19 142 -19 25 0 49 -5 53
-11 5 -6 7 -1 5 10 -4 22 -4 22 -78 24 -36 1 -50 5 -50 15 0 10 -16 17 -45 22
-55 8 -60 24 -7 22 22 0 44 2 50 5 5 4 13 1 15 -5 3 -8 6 -6 6 5 1 11 9 17 26
17 14 0 28 7 31 15 5 11 9 12 19 2 16 -15 1 -27 -32 -27 -13 0 -23 -4 -23 -9
0 -5 -3 -17 -6 -25 -6 -14 0 -16 37 -10 51 8 72 21 65 41 -8 20 12 63 29 63 8
0 15 -4 15 -8z m1598 -61 c68 -13 72 -32 8 -34 -27 -1 -36 -5 -36 -18 0 -10 5
-21 11 -25 8 -5 8 -9 -1 -14 -9 -6 -6 -10 9 -15 11 -3 21 -10 21 -15 0 -4 9
-6 20 -3 16 4 20 0 20 -17 0 -13 9 -38 21 -56 21 -34 21 -34 0 -34 -35 0 -34
-20 1 -21 30 -2 30 -2 6 -6 -21 -3 -27 -9 -25 -26 1 -12 11 -25 22 -29 11 -3
-5 -6 -37 -7 -33 -1 -58 3 -58 9 0 6 9 10 21 10 15 0 20 5 17 22 -2 18 -13 24
-48 31 -39 8 -42 10 -22 18 12 5 22 13 22 20 0 6 -22 43 -50 82 -27 39 -50 77
-50 84 0 7 -4 13 -10 13 -14 0 -12 27 3 33 19 8 88 7 135 -2z m-2353 -21 c20
0 25 -6 30 -37 3 -21 8 -48 11 -60 2 -12 -3 -28 -11 -37 -21 -21 -19 -67 3
-73 13 -3 19 -15 20 -44 3 -43 3 -43 -68 -28 -56 12 -62 26 -34 81 12 24 13
32 4 38 -9 5 -10 22 -6 54 6 38 5 46 -8 46 -9 0 -16 7 -16 15 0 25 24 56 38
50 8 -3 24 -5 37 -5z m2665 -119 c0 -10 -3 -39 -6 -65 -6 -38 -11 -46 -28 -47
-17 -1 -17 -2 -3 -6 18 -5 22 -50 8 -103 -5 -23 -11 -25 -68 -28 -66 -3 -68 0
-46 58 4 8 5 21 4 27 -1 7 4 10 12 7 9 -3 13 -13 9 -27 l-5 -22 24 20 c13 11
26 21 28 22 1 1 -7 12 -19 25 -15 16 -24 19 -27 11 -6 -17 -38 -16 -52 1 -12
14 -5 46 10 46 4 0 6 7 3 15 -4 11 1 15 17 16 13 1 29 2 34 4 6 1 20 3 33 3
13 1 22 8 21 15 -4 35 2 47 26 47 18 0 25 -5 25 -19z"/>
<path d="M4205 1881 c-3 -10 -4 -25 -3 -32 2 -9 -7 -15 -22 -16 -14 0 -33 -1
-43 -2 -14 -1 -16 -5 -8 -18 25 -44 28 -46 116 -49 82 -4 89 -3 112 21 29 29
27 30 -62 41 l-60 7 40 11 c51 15 58 41 14 50 -54 11 -77 7 -84 -13z"/>
<path d="M4510 1831 c0 -5 -13 -12 -30 -16 -31 -7 -43 -18 -47 -47 -3 -21 23
-24 150 -18 54 3 108 2 119 -3 13 -4 30 -1 49 10 53 32 39 39 -97 49 -61 4
-104 12 -112 21 -15 15 -32 17 -32 4z"/>
<path d="M4906 1774 c-11 -29 16 -40 114 -47 119 -9 171 -18 164 -28 -8 -13 1
-11 41 8 19 9 35 20 35 25 0 11 -56 39 -63 31 -4 -3 -12 -1 -19 5 -7 5 -70 13
-139 17 -117 7 -126 6 -133 -11z"/>
<path d="M5580 1755 c0 -3 4 -15 10 -25 7 -14 6 -20 -6 -24 -13 -5 -14 -9 -4
-21 10 -12 10 -15 0 -15 -10 0 -10 -3 -1 -14 7 -9 8 -17 3 -20 -15 -9 -102 6
-96 16 3 5 12 7 19 4 12 -4 35 11 35 24 0 17 -41 5 -55 -16 -14 -22 -22 -24
-93 -25 -42 0 -72 -3 -65 -5 7 -3 10 -11 7 -18 -13 -33 105 -75 138 -49 7 6
28 13 46 17 19 3 42 16 52 28 10 13 22 19 26 15 5 -4 2 -12 -6 -17 -24 -15 20
-51 45 -38 13 8 16 7 11 -1 -13 -20 33 -12 55 10 13 13 27 18 40 14 11 -4 19
-2 19 4 0 6 -20 11 -45 11 -25 0 -45 4 -45 8 0 5 28 7 63 4 37 -2 57 0 50 5
-9 6 -2 13 22 22 42 15 39 26 -7 29 -51 3 -118 23 -118 36 0 23 -16 34 -57 41
-24 4 -43 4 -43 0z"/>
<path d="M2709 1696 c-3 -3 -25 -6 -50 -7 -30 -2 -46 -7 -46 -16 0 -7 4 -13 9
-13 18 0 6 -19 -14 -23 -13 -2 -1 -5 25 -6 27 0 46 3 43 8 -3 5 0 14 8 20 11
9 18 8 30 -4 9 -9 14 -21 11 -25 -3 -5 23 -11 57 -13 40 -2 22 -4 -48 -5
l-112 -2 2 -35 c1 -28 -2 -35 -18 -35 -16 0 -15 -3 8 -21 23 -18 31 -19 58
-10 17 6 54 12 82 12 28 1 41 4 29 6 -13 2 -23 7 -23 11 0 14 322 3 448 -14
39 -6 42 -5 42 17 0 18 3 20 12 11 7 -7 29 -12 49 -12 21 0 41 -4 44 -10 4 -6
-5 -10 -19 -10 -27 0 -35 -15 -13 -23 10 -4 10 -6 0 -6 -7 -1 -13 -6 -13 -12
0 -6 14 -9 33 -7 23 2 37 -3 50 -19 9 -12 32 -24 50 -26 17 -3 -33 -3 -113 -1
-88 3 -149 9 -155 16 -7 8 -5 9 6 5 21 -7 44 8 34 22 -5 9 -10 9 -21 0 -11 -9
-18 -9 -26 -1 -18 18 -28 14 -28 -8 0 -14 -7 -20 -22 -20 -19 0 -20 2 -8 10
10 6 -60 9 -202 7 -140 -1 -217 -6 -214 -12 1 -5 10 -9 20 -7 9 2 16 -2 16 -7
0 -6 7 -8 15 -5 9 4 15 0 15 -9 0 -22 25 -28 49 -11 18 13 28 13 57 4 19 -7
41 -9 49 -6 9 3 15 -1 15 -9 0 -19 76 -21 83 -2 3 9 9 9 23 1 11 -6 52 -12 93
-13 41 -1 78 -4 83 -7 18 -11 -5 -24 -43 -24 -27 0 -39 -4 -39 -14 0 -9 -10
-13 -31 -12 -18 0 -34 -5 -36 -11 -3 -8 5 -13 19 -14 20 -1 20 -2 -6 -9 -16
-5 -33 -7 -38 -4 -4 3 -8 0 -8 -5 0 -6 9 -11 19 -11 20 0 73 -38 56 -41 -23
-2 -124 -4 -117 -1 4 1 6 18 4 37 -3 21 0 35 7 35 6 0 11 5 11 11 0 6 -7 8
-17 4 -12 -4 -14 -3 -8 3 6 6 19 12 30 14 38 8 -78 36 -149 37 -65 0 -68 -1
-52 -17 12 -14 13 -21 4 -30 -9 -9 -5 -12 19 -12 17 0 33 6 36 13 6 17 19 2
21 -25 1 -16 12 -29 39 -41 20 -10 37 -23 37 -28 0 -5 -26 -9 -57 -9 -32 0
-53 4 -46 8 6 4 -30 6 -80 5 -51 -1 -127 5 -171 14 -94 18 -112 9 -108 -54 5
-86 8 -90 70 -99 32 -4 47 -9 34 -12 -12 -2 -20 -8 -17 -13 10 -14 -14 -49
-34 -49 -20 0 -46 -46 -30 -55 5 -4 7 -10 4 -15 -9 -15 20 -28 53 -23 24 4 32
10 28 20 -5 11 2 14 32 11 23 -2 36 -8 34 -15 -1 -7 7 -13 17 -13 11 0 22 6
24 13 4 9 8 9 15 -2 8 -11 14 -10 33 8 20 19 33 23 56 20 3 0 10 6 15 15 5 9
19 16 31 16 17 0 19 -2 7 -10 -19 -12 -13 -16 37 -24 24 -3 44 -2 48 4 3 5 -3
10 -14 10 -42 0 -19 16 46 34 59 15 68 16 81 2 14 -14 13 -16 -11 -25 -35 -14
-34 -21 3 -21 27 0 30 3 30 31 0 42 21 59 74 59 39 0 45 3 48 23 2 17 9 22 31
20 15 -1 27 2 27 8 0 13 44 11 58 -3 9 -9 12 -9 12 0 0 7 -5 12 -11 12 -5 0
-8 4 -5 9 4 5 24 4 49 -4 50 -15 124 -6 119 15 -4 16 17 30 35 23 10 -4 11 -9
3 -19 -9 -10 -4 -14 22 -18 124 -18 174 -22 183 -16 16 12 92 19 102 9 5 -5
14 4 20 21 11 28 10 30 -13 30 -14 0 -23 4 -20 9 9 13 -14 19 -51 13 -28 -4
-33 -2 -33 16 0 27 45 37 97 23 21 -6 50 -11 65 -11 17 0 28 -6 31 -17 3 -12
5 -9 6 8 1 29 -16 38 -74 40 -29 1 -29 1 -5 8 22 6 23 8 6 14 -10 4 -25 2 -32
-4 -11 -9 -14 -6 -14 20 0 26 -4 31 -24 31 -28 0 -43 16 -24 23 7 3 3 6 -9 6
-12 1 -23 -5 -26 -11 -3 -10 -7 -10 -20 1 -12 9 -32 12 -62 9 -28 -4 -45 -1
-48 6 -3 7 12 12 42 13 63 1 61 1 61 23 0 18 -7 20 -87 21 -49 1 -101 5 -118
8 -24 6 -18 8 33 12 35 2 66 1 69 -3 2 -5 35 -8 74 -8 51 0 69 4 69 13 0 19
38 37 80 40 37 2 53 21 20 23 -69 5 -66 4 -47 18 9 7 17 16 17 20 0 4 -8 6
-17 5 -10 -1 -26 1 -36 6 -10 4 -23 3 -28 -2 -14 -14 1 -45 19 -38 12 4 12 3
3 -9 -9 -11 -33 -13 -104 -11 -51 2 -111 4 -134 4 -24 1 -43 5 -43 10 0 6 19
8 41 5 35 -4 44 -1 57 18 9 12 18 44 20 70 3 41 1 48 -15 48 -10 0 -57 3 -104
6 -84 6 -86 6 -92 -17 -3 -12 -4 -26 -2 -30 3 -3 43 -10 90 -14 47 -4 85 -10
85 -14 0 -10 -198 -1 -227 10 -30 11 -25 35 5 31 12 -2 22 2 22 7 0 6 -8 11
-18 11 -10 0 -23 5 -29 11 -7 7 -13 8 -17 0 -4 -6 -20 -8 -36 -4 -31 6 -39 -4
-18 -25 9 -9 8 -12 -8 -13 -10 -1 -32 -2 -49 -3 -21 -1 -30 4 -30 14 0 9 7 14
18 12 12 -2 17 4 17 22 0 26 -16 34 -65 34 -11 0 -37 3 -57 7 -24 5 -38 4 -38
-3 0 -12 -220 -6 -270 8 -39 11 -54 12 -61 6z m691 -312 c9 -22 15 -25 51 -23
35 3 43 0 54 -21 7 -14 23 -27 35 -30 12 -3 21 -9 21 -15 -1 -16 -58 -26 -93
-17 -26 7 -33 14 -33 33 0 19 -5 26 -25 28 -14 1 -34 4 -45 6 -11 1 -44 3 -72
4 -29 0 -53 5 -53 10 0 6 15 7 34 4 29 -4 34 -2 33 13 -2 13 7 20 28 25 50 11
55 10 65 -17z m-542 -261 c17 -3 32 -9 32 -14 0 -5 10 -10 23 -10 17 -1 18 -2
4 -6 -9 -2 -15 -9 -12 -14 4 -5 -2 -9 -13 -9 -23 0 -77 -55 -68 -69 4 -6 0
-11 -9 -11 -9 0 -13 5 -10 10 3 6 -3 10 -14 10 -11 0 -23 5 -27 11 -8 14 14
29 44 29 13 0 29 6 36 13 10 10 -1 12 -53 10 -75 -2 -104 4 -95 19 4 6 -1 8
-15 3 -12 -3 -21 -2 -21 4 0 14 10 19 60 26 25 4 47 9 50 12 3 2 16 2 30 -2
14 -4 40 -9 58 -12z"/>
<path d="M4270 1520 c0 -6 11 -15 24 -20 13 -5 27 -14 31 -20 5 -7 21 -9 47
-5 32 6 39 4 36 -6 -3 -8 -20 -16 -39 -19 -26 -4 -35 -10 -36 -27 -2 -20 2
-23 33 -23 21 0 33 4 29 10 -4 7 14 9 52 6 32 -2 68 -5 81 -5 41 -2 24 -28
-20 -31 -97 -6 -208 -1 -208 9 0 5 -14 8 -30 9 -17 0 -38 3 -49 7 -10 3 -23
-1 -30 -9 -12 -15 -41 -15 -261 -2 -14 1 -33 -2 -43 -7 -16 -8 -16 -10 9 -30
20 -15 39 -20 69 -18 31 2 44 -2 48 -13 7 -18 52 -22 62 -5 7 10 106 11 152 1
49 -10 9 -19 -62 -14 l-76 5 3 -34 c2 -27 8 -35 26 -37 18 -3 21 -7 12 -17 -8
-9 -7 -17 5 -28 24 -24 18 -29 -26 -22 -52 9 -206 -4 -188 -16 8 -5 34 -9 60
-9 25 0 51 -6 57 -12 10 -10 15 -10 22 1 6 11 9 8 12 -10 2 -19 11 -25 43 -31
36 -6 120 -1 137 9 4 2 0 12 -9 23 -9 10 -21 16 -26 13 -5 -3 -8 0 -5 8 6 19
46 23 74 8 16 -8 24 -21 24 -40 0 -20 6 -28 24 -31 35 -7 101 6 99 19 -1 5 10
10 25 11 15 0 39 3 55 7 22 6 27 4 27 -11 0 -13 3 -15 8 -7 6 9 21 10 50 5 51
-8 52 -27 2 -27 -24 0 -35 -5 -35 -15 0 -19 66 -33 78 -17 6 9 10 9 14 0 5
-14 35 -17 47 -6 3 4 12 8 19 9 7 1 17 3 22 4 6 1 19 2 30 1 16 -1 17 -3 5
-11 -8 -5 -11 -12 -7 -16 4 -4 2 -13 -3 -20 -8 -9 0 -11 36 -10 27 1 49 7 52
14 8 26 32 39 73 40 58 3 63 12 6 12 -54 0 -67 14 -36 39 l22 18 -34 5 c-35 6
-104 60 -92 72 3 3 40 6 81 6 65 0 74 2 79 20 4 16 11 19 36 14 17 -3 34 -7
36 -10 9 -8 -21 -22 -40 -19 -21 4 -33 -21 -14 -29 18 -7 9 -34 -13 -39 -18
-4 -13 -7 33 -22 8 -2 15 -16 15 -30 0 -21 5 -25 28 -24 22 0 23 2 9 8 -17 6
-18 8 -3 20 9 8 19 11 23 8 3 -4 15 -2 25 4 14 8 23 8 31 0 14 -14 54 -14 62
-1 3 6 0 11 -7 12 -7 0 -18 2 -24 2 -18 2 -46 36 -41 49 2 6 6 17 8 22 3 12
25 35 33 35 3 0 6 -7 6 -15 0 -8 -6 -15 -12 -15 -7 0 2 -9 20 -20 18 -11 30
-25 27 -30 -3 -6 0 -10 7 -11 7 -1 22 -2 33 -3 11 -1 42 -3 69 -4 37 -2 46 -5
38 -14 -8 -10 0 -14 36 -16 54 -4 64 -9 60 -30 -2 -11 7 -20 27 -27 36 -13 78
-7 72 9 -7 17 63 17 80 0 13 -12 12 -14 -1 -14 -9 0 -16 -7 -16 -15 0 -8 7
-15 15 -15 8 0 15 -7 15 -15 0 -8 5 -15 11 -15 5 0 7 5 4 10 -3 5 -1 10 4 10
6 0 11 -9 11 -20 0 -11 6 -20 14 -20 20 0 29 17 14 23 -18 8 10 27 38 27 23 0
34 18 34 53 0 16 -3 18 -9 8 -6 -9 -11 -10 -15 -2 -9 14 2 33 15 26 8 -6 11 4
7 23 0 4 -9 6 -20 4 -27 -5 -22 17 7 28 41 15 29 30 -25 30 -39 0 -50 4 -50
16 0 9 5 12 12 7 22 -13 88 -10 88 4 0 7 -7 13 -15 13 -7 0 -18 8 -24 17 -9
17 -11 16 -30 -1 -18 -16 -21 -17 -21 -3 0 8 -6 18 -12 20 -7 3 4 6 25 6 36 1
50 15 25 24 -10 3 -10 7 0 19 11 14 8 17 -27 23 -22 4 -58 5 -80 4 -22 -2 -43
0 -47 4 -4 4 32 7 80 7 66 0 91 4 103 16 9 8 21 13 28 10 8 -3 16 2 19 10 4
10 -2 14 -19 14 -26 0 -56 34 -49 55 3 7 1 16 -4 19 -5 3 -95 8 -198 11 -104
3 -217 7 -250 11 -34 3 -79 7 -100 8 -22 2 -43 5 -49 7 -5 1 -40 -1 -77 -5
-37 -4 -108 -3 -160 3 -51 5 -173 13 -271 16 l-179 7 7 -31 c5 -24 3 -31 -9
-31 -12 0 -14 7 -10 29 5 24 2 29 -18 34 -38 11 -138 8 -138 -3z"/>
<path d="M15138 1113 c3 -26 11 -58 18 -72 8 -16 10 -27 4 -29 -18 -6 -11 -40
8 -38 13 1 17 -6 16 -32 -2 -31 -1 -32 34 -28 36 4 62 -10 55 -29 -2 -6 3 -20
12 -30 20 -27 19 -14 -9 123 l-22 113 23 5 c22 6 23 7 6 19 -10 6 -33 15 -52
18 -28 6 -32 5 -27 -10 6 -15 5 -15 -11 -2 -10 8 -28 19 -39 26 -21 11 -21 10
-16 -34z"/>
<path d="M9423 1043 c-18 -6 -16 -23 2 -23 12 0 15 -14 14 -72 -1 -40 -3 -65
-6 -55 -9 33 -18 17 -14 -25 3 -35 5 -39 12 -23 6 13 8 -9 8 -60 -1 -84 6
-228 16 -330 4 -33 8 -96 10 -140 2 -44 4 -88 4 -97 1 -10 6 -18 12 -18 9 0
10 41 5 153 -3 83 -8 204 -11 267 -15 343 -15 327 5 353 19 24 19 25 0 30 -11
3 -20 12 -20 20 0 17 -18 26 -37 20z"/>
<path d="M4990 973 c0 -19 31 -47 68 -62 42 -18 132 -8 150 16 6 9 12 27 12
39 0 21 -3 22 -115 21 -86 -1 -115 -5 -115 -14z"/>
<path d="M5380 946 c0 -4 -11 -5 -24 -2 -28 7 -43 -8 -28 -27 6 -7 12 -28 14
-47 3 -35 4 -35 58 -41 30 -3 49 -6 43 -7 -7 -1 -13 -13 -13 -26 0 -32 -27
-41 -110 -37 -93 4 -245 4 -317 0 -62 -4 -75 -13 -51 -37 9 -9 5 -12 -20 -12
-30 0 -32 2 -22 21 7 11 10 23 7 25 -2 2 -45 7 -96 11 -64 4 -89 9 -81 17 5 5
10 23 10 39 0 27 -2 29 -26 23 -15 -4 -34 -16 -43 -27 -13 -15 -30 -20 -83
-21 -37 -1 -65 -5 -62 -10 4 -7 -53 -13 -79 -9 -4 1 -16 -3 -26 -8 -12 -7 -21
-7 -28 0 -6 6 -66 10 -139 11 -71 0 -172 6 -224 14 -82 11 -96 11 -106 -1 -14
-18 -25 -20 -19 -2 4 9 -7 11 -41 9 -37 -3 -47 -9 -54 -28 -5 -13 -14 -24 -20
-24 -5 0 -10 -5 -10 -11 0 -5 5 -7 10 -4 17 10 100 13 100 4 0 -5 32 -9 70 -9
39 0 70 -3 70 -7 0 -5 -52 -6 -115 -5 l-115 4 0 -36 c0 -20 -4 -36 -10 -36 -5
0 -10 5 -10 10 0 15 -27 12 -33 -4 -4 -9 -24 -14 -62 -15 -31 0 -61 -3 -65 -6
-5 -3 -11 -1 -15 5 -9 15 -22 12 -42 -10 -22 -23 -85 -29 -107 -11 -19 16 -21
41 -3 42 23 1 -28 18 -59 18 -16 1 -35 6 -42 13 -9 9 -15 9 -24 -1 -11 -10
-10 -11 3 -6 13 5 16 -2 16 -39 l0 -45 -79 -3 c-58 -2 -79 0 -83 10 -3 8 -3
18 1 23 12 20 -7 49 -32 49 -14 0 -35 5 -46 11 -14 8 -23 8 -31 0 -14 -14 -84
-14 -92 -1 -3 6 -15 10 -26 10 -21 0 -22 3 -13 38 5 17 14 22 41 22 30 0 33 3
28 20 -5 15 0 21 20 26 32 8 75 -10 75 -31 0 -8 6 -15 14 -15 7 0 28 -3 45 -6
24 -5 31 -3 31 9 0 18 30 30 54 21 9 -3 16 -12 16 -20 0 -8 6 -14 13 -15 35
-2 73 -12 98 -24 24 -13 28 -13 33 0 3 8 11 15 19 15 7 0 24 14 36 31 21 28
27 31 62 25 43 -7 103 -39 92 -49 -3 -4 8 -7 25 -7 36 0 36 0 20 35 -10 22
-17 25 -59 25 -26 0 -51 5 -54 10 -4 6 -43 10 -88 9 -45 0 -90 2 -100 6 -9 4
-23 3 -30 -3 -17 -14 -44 -17 -107 -9 -30 4 -113 9 -185 13 -71 3 -155 11
-185 18 -64 15 -234 21 -252 10 -7 -4 -29 -7 -50 -5 -32 2 -38 -1 -38 -16 0
-11 6 -28 14 -39 12 -16 28 -19 107 -21 76 -1 95 2 106 15 11 16 12 16 13 0 0
-15 10 -18 70 -18 53 0 70 -3 70 -14 0 -9 -10 -12 -30 -10 -25 3 -31 0 -36
-23 -6 -22 -8 -24 -13 -9 -6 16 -8 16 -25 -3 -19 -21 -19 -21 8 -21 15 0 25
-4 22 -9 -3 -5 -34 -7 -68 -4 -57 6 -61 5 -55 -13 7 -18 6 -18 -7 -1 -18 23
-39 22 -31 -2 7 -22 -23 -45 -47 -36 -16 6 -31 -4 -47 -30 -12 -19 -12 -19 -8
2 4 16 1 20 -10 16 -10 -4 -13 -13 -8 -32 4 -14 6 -41 6 -59 -1 -28 2 -32 27
-33 15 0 80 -6 145 -13 65 -6 120 -8 123 -4 8 13 44 9 59 -5 8 -8 47 -17 92
-20 43 -4 161 -14 263 -22 351 -31 525 -43 532 -36 4 3 3 12 -1 20 -9 13 -243
37 -288 28 -15 -3 -20 0 -16 10 3 7 9 11 13 8 5 -3 10 0 12 5 2 6 12 10 23 10
66 -3 121 3 127 13 14 22 8 27 -22 22 -17 -3 -39 -1 -49 5 -14 7 -21 6 -24 -3
-3 -9 -9 -9 -26 1 -25 15 -34 15 -26 2 4 -6 -20 -10 -64 -10 -39 0 -71 4 -71
9 0 5 -8 11 -17 14 -14 3 -12 6 10 15 34 14 68 15 122 2 31 -7 43 -6 57 7 9 8
21 12 27 9 15 -9 99 -19 149 -17 42 2 51 -6 31 -26 -7 -7 8 -12 50 -17 52 -6
61 -10 61 -27 0 -14 4 -18 13 -13 8 5 8 2 -2 -9 -7 -9 -20 -17 -27 -17 -8 0
-14 -4 -14 -10 0 -5 14 -10 30 -10 24 0 30 4 30 22 0 12 3 18 8 14 7 -8 9 -13
11 -45 1 -14 12 -20 48 -25 33 -4 49 -2 55 6 5 9 8 9 8 2 0 -7 9 -14 19 -17
13 -3 18 -1 14 9 -4 10 8 12 59 8 34 -2 73 -5 86 -5 12 -1 22 -5 22 -9 0 -17
60 -17 75 0 20 22 10 30 -42 30 -27 0 -43 5 -43 12 0 9 -3 9 -11 1 -11 -11
-48 -7 -50 6 -8 32 -4 91 5 88 6 -2 25 4 41 13 19 11 37 14 50 9 11 -4 16 -8
11 -8 -4 -1 -1 -12 7 -25 15 -22 15 -24 -3 -29 -10 -3 -21 -1 -24 4 -2 5 -3 4
-2 -3 4 -19 44 -22 62 -4 8 9 24 16 35 16 10 0 19 5 19 10 0 6 -6 10 -12 10
-21 0 14 20 36 20 13 0 16 -5 12 -17 -5 -16 -4 -16 8 1 11 13 22 17 41 12 30
-8 24 -26 -9 -26 -27 0 -46 -18 -46 -42 0 -19 25 -25 35 -8 4 6 15 8 26 5 13
-5 17 -2 14 8 -13 33 85 40 139 10 11 -6 31 -7 46 -3 16 5 51 3 84 -5 33 -8
58 -9 62 -4 11 18 29 9 42 -21 12 -25 11 -32 -1 -45 -9 -8 -20 -15 -26 -15
-19 0 -12 -22 9 -27 11 -3 20 -10 20 -15 0 -5 30 -8 68 -7 37 2 99 -1 137 -5
l70 -7 -25 20 -25 19 29 8 c28 7 76 -11 76 -28 0 -5 -4 -7 -9 -3 -5 3 -12 2
-15 -3 -3 -4 17 -9 44 -9 l48 -1 -20 34 c-16 28 -18 37 -8 49 14 17 50 20 50
5 0 -16 38 -11 48 6 11 19 58 22 75 5 8 -8 7 -11 -6 -11 -9 0 -16 -5 -14 -12
1 -7 -5 -13 -13 -14 -8 0 -21 -2 -27 -2 -7 -1 -12 -13 -11 -27 2 -25 19 -31
73 -26 10 1 26 -1 35 -5 12 -5 12 -8 -5 -15 -13 -6 6 -8 57 -6 43 2 75 1 73
-3 -2 -4 16 -2 40 3 61 14 56 27 -10 27 -30 0 -55 -4 -55 -10 0 -5 -17 -10
-37 -9 -21 0 -31 3 -23 6 8 3 29 20 46 39 24 27 29 40 26 68 -3 26 -10 36 -26
39 -11 2 0 5 25 6 33 1 49 -3 53 -14 7 -18 50 -20 63 -2 6 6 13 28 17 47 5 31
3 35 -17 37 -52 5 -97 16 -97 24 0 14 21 22 32 11 5 -5 24 -6 44 -2 19 4 34 5
34 1 0 -3 5 1 10 9 7 11 5 19 -7 28 -15 10 -15 12 -1 12 13 0 27 26 28 51 0 4
-15 9 -32 12 -73 13 -98 20 -98 26 0 15 25 31 47 31 26 0 46 31 36 56 -5 14
-3 16 12 10 25 -9 59 22 44 41 -9 10 -8 18 6 33 18 20 17 20 -62 20 -65 0 -82
-3 -87 -16 -8 -21 -8 -21 10 -28 12 -4 15 -2 10 9 -6 17 5 20 21 4 8 -8 17 -8
31 0 11 6 28 11 38 11 16 0 16 -1 -1 -20 -13 -15 -14 -20 -5 -20 11 0 11 -3 2
-12 -10 -10 -15 -10 -20 -1 -4 6 -30 13 -57 15 -42 2 -50 6 -50 22 0 23 -68
44 -150 47 -47 2 -48 3 -10 6 22 3 43 10 47 16 16 24 8 36 -22 34 -16 -1 -30
-6 -30 -11z m-730 -226 c0 -6 36 -10 88 -11 131 -1 159 -16 37 -20 -55 -1 -83
-4 -62 -6 41 -5 50 -25 18 -43 -11 -5 -64 -9 -118 -9 -54 1 -88 4 -75 6 26 5
29 18 6 31 -26 14 -8 30 41 38 25 3 45 10 45 15 0 5 5 9 10 9 6 0 10 -4 10
-10z"/>
<path d="M15260 718 c0 -4 6 -8 13 -8 9 0 8 -3 -2 -9 -10 -7 -10 -10 -1 -13 9
-3 5 -16 -14 -45 -24 -35 -31 -65 -35 -137 -1 -4 -8 -6 -16 -3 -18 7 -21 2
-29 -45 -4 -26 -2 -38 6 -38 6 0 3 -9 -7 -20 l-19 -21 85 6 c119 8 169 15 169
23 0 4 -12 52 -26 107 -14 55 -31 125 -37 155 -12 55 -12 55 -49 55 -21 1 -38
-3 -38 -7z"/>
</g>
</svg>
